<svg width="20" height="23" viewBox="0 0 20 23" fill="none" xmlns="http://www.w3.org/2000/svg">
<path d="M12.558 6.69875L13.6013 9.6025H11.5147L12.558 6.69875ZM3.864 17.25V0H2.898C1.29444 0 0 1.28417 0 2.875V17.9879C0.5313 17.5183 1.21716 17.25 1.932 17.25H3.864ZM0 21.0833C0 22.1375 0.8694 23 1.932 23H19.32V19.1667H1.932C0.8694 19.1667 0 20.0292 0 21.0833ZM19.32 1.91667V17.25H5.796V0H17.388C18.4506 0 19.32 0.8625 19.32 1.91667ZM17.0306 13.4358L13.9201 4.79167C13.7075 4.21667 13.1762 3.84292 12.558 3.84292C11.9398 3.84292 11.4085 4.21667 11.1959 4.80125L8.08542 13.4454H10.1333L10.8192 11.5287H14.2871L14.973 13.4454H17.0209L17.0306 13.4358Z" fill="#4B73A3"/>
</svg>
