<svg width="24" height="23" viewBox="0 0 24 23" fill="none" xmlns="http://www.w3.org/2000/svg">
<path d="M11.3397 3.7454L12 4.97137L12.6603 3.7454C13.1438 2.84765 13.848 2.09947 14.6995 1.57446C15.5443 1.05357 16.5053 0.770074 17.4871 0.750314C19.0684 0.827066 20.5618 1.54074 21.6419 2.7445C22.7277 3.95473 23.3064 5.56149 23.2457 7.21423L23.2452 7.22798V7.24175C23.2452 8.79255 22.6313 10.464 21.6322 12.1431C20.6374 13.8149 19.2949 15.4372 17.9192 16.8749C15.1682 19.7501 12.3549 21.8145 12.1365 21.9734L12 22.0727L11.8653 21.9747C11.865 21.9745 11.8647 21.9743 11.8644 21.9741C11.6371 21.8077 8.82793 19.745 6.08073 16.8741C4.70509 15.4366 3.36257 13.8144 2.36781 12.1428C1.36869 10.4638 0.754839 8.79254 0.754839 7.24175V7.22798L0.754334 7.21423C0.693645 5.56149 1.27231 3.95473 2.35814 2.7445C3.43817 1.54074 4.93155 0.827066 6.51292 0.750314C7.49467 0.770074 8.45572 1.05357 9.30055 1.57446C10.152 2.09947 10.8562 2.84765 11.3397 3.7454Z" stroke="#FAFAFA" stroke-width="1.5"/>
</svg>
