<svg width="64" height="60" viewBox="0 0 64 60" fill="none" xmlns="http://www.w3.org/2000/svg">
<path fill-rule="evenodd" clip-rule="evenodd" d="M30 0H64V60H30H29V59.9836C12.8944 59.4562 0 46.2339 0 30C0 13.7661 12.8944 0.543841 29 0.0163527V0H30Z" fill="#FF862F"/>
<path d="M26.8759 23.4992H44.8753C45.1736 23.4992 45.4598 23.3763 45.6707 23.1575C45.8817 22.9388 46.0002 22.642 46.0002 22.3326C46.0002 22.0232 45.8817 21.7265 45.6707 21.5077C45.4598 21.2889 45.1736 21.166 44.8753 21.166H26.8759C26.5776 21.166 26.2914 21.2889 26.0805 21.5077C25.8695 21.7265 25.751 22.0232 25.751 22.3326C25.751 22.642 25.8695 22.9388 26.0805 23.1575C26.2914 23.3763 26.5776 23.4992 26.8759 23.4992Z" fill="#FAFAFA"/>
<path d="M44.8753 29.333H26.8759C26.5776 29.333 26.2914 29.4559 26.0805 29.6747C25.8695 29.8935 25.751 30.1902 25.751 30.4996C25.751 30.809 25.8695 31.1057 26.0805 31.3245C26.2914 31.5433 26.5776 31.6662 26.8759 31.6662H44.8753C45.1736 31.6662 45.4598 31.5433 45.6707 31.3245C45.8817 31.1057 46.0002 30.809 46.0002 30.4996C46.0002 30.1902 45.8817 29.8935 45.6707 29.6747C45.4598 29.4559 45.1736 29.333 44.8753 29.333Z" fill="#FAFAFA"/>
<path d="M44.8753 37.499H26.8759C26.5776 37.499 26.2914 37.6219 26.0805 37.8407C25.8695 38.0595 25.751 38.3562 25.751 38.6656C25.751 38.975 25.8695 39.2718 26.0805 39.4905C26.2914 39.7093 26.5776 39.8322 26.8759 39.8322H44.8753C45.1736 39.8322 45.4598 39.7093 45.6707 39.4905C45.8817 39.2718 46.0002 38.975 46.0002 38.6656C46.0002 38.3562 45.8817 38.0595 45.6707 37.8407C45.4598 37.6219 45.1736 37.499 44.8753 37.499Z" fill="#FAFAFA"/>
<path d="M21.2499 24.6664C22.4925 24.6664 23.4998 23.6218 23.4998 22.3332C23.4998 21.0446 22.4925 20 21.2499 20C20.0073 20 19 21.0446 19 22.3332C19 23.6218 20.0073 24.6664 21.2499 24.6664Z" fill="#FAFAFA"/>
<path d="M21.2499 32.8344C22.4925 32.8344 23.4998 31.7898 23.4998 30.5012C23.4998 29.2126 22.4925 28.168 21.2499 28.168C20.0073 28.168 19 29.2126 19 30.5012C19 31.7898 20.0073 32.8344 21.2499 32.8344Z" fill="#FAFAFA"/>
<path d="M21.2499 41.0004C22.4925 41.0004 23.4998 39.9558 23.4998 38.6672C23.4998 37.3786 22.4925 36.334 21.2499 36.334C20.0073 36.334 19 37.3786 19 38.6672C19 39.9558 20.0073 41.0004 21.2499 41.0004Z" fill="#FAFAFA"/>
</svg>
