<svg width="125" height="79" viewBox="0 0 125 79" fill="none" xmlns="http://www.w3.org/2000/svg">
<mask id="mask0_640_2019" style="mask-type:luminance" maskUnits="userSpaceOnUse" x="0" y="0" width="125" height="79">
<path d="M124.14 0H0V79H124.14V0Z" fill="white"/>
</mask>
<g mask="url(#mask0_640_2019)">
<path d="M29.9288 43.9541C29.9288 43.9541 24.4729 47.1823 26.2461 51.956L32.6567 47.4548L29.9288 43.9541Z" fill="#F5CA36"/>
<path d="M96.672 43.2871C96.672 43.2871 104.61 51.5874 100.509 55.2565L93.9629 47.1989L96.672 43.2871Z" fill="#F5CA36"/>
<path d="M108.11 78.1087C108.11 78.1087 107.476 53.7273 89.7562 42.7183L70.9354 35.922C70.9354 35.922 59.7826 34.7023 54.7289 35.922L34.5139 43.938C34.5139 43.938 13.9505 56.6594 16.0419 78.0941H106.834L108.11 78.1087H108.11Z" fill="#F08235"/>
<path d="M89.2892 78.1124C89.2892 78.1124 98.1492 64.9498 84.0403 51.351L69.9314 47.0163C69.9314 47.0163 66.4467 51.2661 56.5023 45.4863L37.4637 49.566C37.4637 49.566 26.8918 64.9852 34.0987 78.1143L89.2892 78.1124Z" fill="white"/>
<path d="M60.3182 37.7691C60.3182 37.7691 62.9005 37.0557 65.041 38.0411L65.3469 41.473C65.3469 41.473 61.5417 40.7257 60.0806 41.507L60.3182 37.7691Z" fill="#F5CA36"/>
<path d="M55.911 64.4957C56.2947 62.0085 55.6858 59.8503 54.5509 59.6752C53.416 59.5001 52.1849 61.3745 51.8012 63.8617C51.4175 66.3489 52.0265 68.5072 53.1613 68.6822C54.2962 68.8573 55.5273 66.983 55.911 64.4957Z" fill="#6C6866"/>
<path d="M73.7421 65.7384C74.1258 63.2512 73.5168 61.0929 72.3819 60.9179C71.247 60.7428 70.016 62.6171 69.6323 65.1044C69.2486 67.5916 69.8575 69.7498 70.9924 69.9249C72.1273 70.1 73.3584 68.2256 73.7421 65.7384Z" fill="#6C6866"/>
<path d="M93.6594 43.1966C94.4749 38.999 89.4677 34.4949 82.4754 33.1366C75.4832 31.7782 69.1539 34.0798 68.3384 38.2775C67.5229 42.4751 72.5301 46.9791 79.5223 48.3375C86.5145 49.6959 92.8439 47.3942 93.6594 43.1966Z" fill="white"/>
<path d="M45.2431 47.591C52.3358 46.9355 57.7666 42.9524 57.3731 38.6944C56.9796 34.4365 50.9108 31.5161 43.8181 32.1716C36.7254 32.827 31.2946 36.8102 31.6881 41.0681C32.0816 45.3261 38.1504 48.2465 45.2431 47.591Z" fill="#EDF7FD"/>
<path d="M83.0104 30.0805C74.0623 28.3421 65.8756 31.7377 64.7242 37.6641C63.5729 43.5906 69.8935 49.8046 78.8412 51.543C87.7893 53.2813 95.976 49.8857 97.1273 43.9593C98.2787 38.0328 91.9581 31.8188 83.0104 30.0805ZM93.6592 43.1969C92.8435 47.3945 86.5144 49.6962 79.522 48.3379C72.5295 46.9796 67.5224 42.4756 68.3376 38.278C69.1533 34.0805 75.4824 31.7787 82.4748 33.137C89.4673 34.4954 94.4743 38.9994 93.6592 43.1969Z" fill="#F5CA36"/>
<path d="M60.9158 38.4545C60.3604 32.4428 52.5519 28.249 43.4755 29.0877C34.3991 29.9265 27.4915 35.48 28.0469 41.4918C28.6023 47.5036 36.4109 51.6974 45.4873 50.8586C54.5636 50.0198 61.4712 44.4663 60.9158 38.4545ZM45.2426 47.5917C38.1497 48.2471 32.0808 45.3268 31.6872 41.0689C31.2935 36.811 36.7244 32.8275 43.8173 32.1721C50.9102 31.5168 56.979 34.4371 57.3727 38.695C57.7664 42.9529 52.3354 46.9359 45.2426 47.5917Z" fill="#F5CA36"/>
<path d="M88.5039 47.9878C88.9221 47.8515 89.3205 47.6973 89.6991 47.5267L81.1904 32.927C80.6675 32.8576 80.1513 32.811 79.6421 32.7817L88.5039 47.9878Z" fill="#EDF7FD"/>
<path d="M85.8062 34.0708L92.4884 45.5366C93.0839 44.8473 93.4907 44.0628 93.6591 43.1962C94.3375 39.7026 90.9815 35.9987 85.8066 34.0708H85.8062Z" fill="#EDF7FD"/>
<path d="M78.3479 32.7505C73.1452 32.7924 68.9877 34.9315 68.3375 38.2785C67.5219 42.4761 72.5294 46.9801 79.5219 48.3384C82.3696 48.8914 85.1075 48.8377 87.4078 48.2955L78.3479 32.7505Z" fill="#EDF7FD"/>
<path d="M77.3816 55.4814L72.6621 57.9091" stroke="#6C6866" stroke-width="2" stroke-linecap="round" stroke-linejoin="round"/>
<path d="M53.6338 53.9683C53.6338 53.9683 56.9322 55.6175 57.3905 56.717" stroke="#6C6866" stroke-width="2" stroke-linecap="round" stroke-linejoin="round"/>
<path d="M113.521 80.2804C113.521 80.2804 115.391 70.0786 104.084 69.1432C102.554 68.8881 87.4207 70.5034 82.3198 79.6854L113.521 80.2804Z" fill="#F08235"/>
<path d="M38.1119 79.4301C38.1119 79.4301 40.7475 77.1345 38.6221 74.5842C36.4967 72.034 29.6103 66.8478 19.6636 67.5277C10.9917 67.9529 12.1822 78.9199 12.1822 78.9199L38.1119 79.4301Z" fill="#F08235"/>
<path d="M87.8967 76.7133L88.19 63.2277C88.19 63.2277 51.6912 57.3644 38.4988 58.6836L35.7138 73.9283L35.2739 82.4299L87.7501 84.0424L87.8967 76.7133Z" fill="#94C745"/>
<path d="M64.7371 83.3101L65.9096 60.443L59.1034 59.584L56.7856 83.0408L64.7371 83.3101Z" fill="#F5CA36"/>
<path d="M42.5322 64.9339C42.5029 64.9414 42.4765 64.9395 42.4516 64.9268C42.4256 64.9141 42.4096 64.8943 42.4016 64.8669C42.395 64.8429 42.3973 64.8193 42.4091 64.7967C42.4209 64.774 42.4407 64.7589 42.4695 64.7528C42.5176 64.7429 42.5732 64.7292 42.6368 64.7123C42.701 64.6958 42.7646 64.6778 42.8287 64.659C42.8929 64.6392 42.9457 64.6227 42.9871 64.6076C43.0098 64.5991 43.0329 64.6001 43.0546 64.6104C43.0767 64.6203 43.0913 64.6364 43.0979 64.6585C43.1045 64.683 43.1022 64.7052 43.0909 64.7255C43.0791 64.7462 43.0607 64.7613 43.0352 64.7707C42.9914 64.7891 42.94 64.808 42.8797 64.8287C42.8193 64.849 42.7585 64.8679 42.6986 64.8858C42.6373 64.9037 42.5821 64.9192 42.5322 64.9348V64.9339ZM42.5661 66.2266C42.5322 66.2342 42.5029 66.2318 42.4775 66.2191C42.4516 66.2073 42.4365 66.187 42.4299 66.1602C42.4214 66.1309 42.4247 66.106 42.4398 66.0828C42.4549 66.0597 42.4789 66.0451 42.5119 66.0371C42.5935 66.0192 42.6802 65.9961 42.7726 65.9669C42.865 65.9376 42.9447 65.906 43.0126 65.874C42.9023 65.8556 42.8264 65.8183 42.7863 65.7637C42.7462 65.709 42.7292 65.6236 42.7358 65.5095L42.7495 65.2644C42.7561 65.1465 42.7839 65.0621 42.8325 65.0117C42.8815 64.9612 42.965 64.9343 43.0847 64.9315C43.0833 64.9277 43.0814 64.9244 43.0796 64.9207C43.0767 64.9169 43.0744 64.9117 43.0715 64.9075C43.0616 64.882 43.0631 64.858 43.0758 64.8344C43.0876 64.8113 43.1074 64.7981 43.1347 64.7929C43.2639 64.7684 43.369 64.7255 43.4506 64.6632C43.5322 64.601 43.5897 64.5241 43.6227 64.4336L43.4247 64.4228C43.4025 64.4539 43.378 64.4845 43.3525 64.5138C43.3266 64.543 43.3007 64.568 43.2743 64.5883C43.2554 64.6081 43.2318 64.6184 43.2026 64.6213C43.1734 64.6232 43.1479 64.6156 43.1272 64.5991C43.1074 64.584 43.0965 64.5642 43.0937 64.5392C43.0913 64.5147 43.0994 64.4921 43.1182 64.4732C43.163 64.4317 43.2102 64.3785 43.2606 64.3134C43.311 64.2483 43.3497 64.1861 43.3785 64.1267C43.3907 64.1003 43.4105 64.0824 43.4379 64.0744C43.4652 64.0654 43.4926 64.0673 43.5204 64.0805C43.5454 64.0928 43.56 64.1121 43.5671 64.1385C43.5737 64.1649 43.5694 64.1894 43.5557 64.2139C43.5506 64.2233 43.5458 64.2328 43.5397 64.2427C43.5345 64.2531 43.5298 64.2634 43.5242 64.2738L44.2351 64.3139C44.2894 64.3172 44.3323 64.3323 44.3629 64.3601C44.3926 64.3879 44.4082 64.4223 44.4091 64.4633C44.4101 64.5043 44.3926 64.5458 44.3573 64.5878C44.3403 64.609 44.3238 64.6293 44.3068 64.6486C44.2898 64.6684 44.2724 64.6868 44.254 64.7047C44.2295 64.7302 44.2017 64.7457 44.1701 64.7509C44.1394 64.7566 44.1107 64.7481 44.0847 64.7264C44.0687 64.7109 44.0598 64.6915 44.0598 64.6679C44.0598 64.6444 44.0654 64.626 44.0772 64.6123C44.089 64.6005 44.1008 64.5878 44.1121 64.5741C44.1239 64.5605 44.1361 64.5473 44.1474 64.5336C44.1644 64.5143 44.1701 64.4973 44.1644 64.4845C44.1588 64.4709 44.1427 64.4629 44.1159 64.4614L43.824 64.4449L43.8184 64.4633C43.8862 64.5821 43.9739 64.6807 44.0838 64.7585C44.1932 64.8358 44.3247 64.8966 44.4784 64.94C44.5077 64.948 44.5279 64.9631 44.5392 64.9862C44.5506 65.0088 44.552 65.0338 44.5449 65.0597C44.5369 65.0862 44.5194 65.1045 44.494 65.1163C44.4671 65.1281 44.4379 65.1291 44.4053 65.1196C44.2597 65.0706 44.1291 65.0069 44.0121 64.9277C43.8952 64.8485 43.8 64.7533 43.7259 64.6406C43.6779 64.709 43.618 64.7684 43.5454 64.8193C43.4723 64.8702 43.3855 64.9103 43.287 64.9395L43.75 64.9659C43.8598 64.9721 43.9447 64.9876 44.0046 65.0135C44.0645 65.039 44.1064 65.0781 44.1295 65.1309C44.1526 65.1842 44.1616 65.2564 44.1569 65.3455L44.1432 65.5906C44.1366 65.7047 44.1107 65.7872 44.064 65.8372C44.0178 65.8867 43.9386 65.9155 43.8273 65.9216C43.8712 65.9461 43.9207 65.9721 43.9768 66.0008C44.0329 66.0296 44.0899 66.0555 44.1484 66.0805C44.2064 66.105 44.2597 66.1248 44.3077 66.1399C44.3403 66.1498 44.3615 66.1677 44.3723 66.1936C44.3822 66.2191 44.3832 66.245 44.3742 66.271C44.3643 66.2974 44.3464 66.3148 44.32 66.3233C44.2936 66.3323 44.2644 66.3318 44.2314 66.3219C44.1762 66.3026 44.1159 66.2795 44.0513 66.2516C43.9867 66.2238 43.924 66.1932 43.8641 66.1602C43.8042 66.1272 43.7505 66.0942 43.7028 66.0635C43.6783 66.0465 43.6651 66.0263 43.6614 66.0036C43.6576 65.9801 43.6623 65.9579 43.6746 65.9367C43.676 65.932 43.6807 65.9268 43.6873 65.9211L43.146 65.891C43.1489 65.8947 43.1536 65.9009 43.1588 65.9103C43.1701 65.9348 43.1729 65.9574 43.1668 65.9791C43.1607 66.0008 43.1441 66.0187 43.1168 66.0329C43.0697 66.0555 43.0154 66.0795 42.9532 66.1036C42.8914 66.129 42.8268 66.1522 42.7594 66.1729C42.692 66.1941 42.6284 66.213 42.568 66.2281L42.5661 66.2266ZM42.9075 64.4322C42.8792 64.4214 42.8429 64.4077 42.7976 64.3912C42.7524 64.3742 42.7071 64.3577 42.6614 64.3407C42.6156 64.3242 42.5784 64.3115 42.5487 64.3016C42.5256 64.2922 42.5095 64.2757 42.5006 64.2516C42.4921 64.2276 42.4921 64.2054 42.5006 64.1856C42.51 64.1606 42.5265 64.1432 42.5496 64.1338C42.5732 64.1239 42.5972 64.1239 42.6218 64.1338C42.6524 64.1437 42.6915 64.1578 42.7387 64.1757C42.7858 64.1941 42.8316 64.212 42.8787 64.2299C42.9249 64.2474 42.9607 64.2615 42.9867 64.2724C43.0102 64.2818 43.0258 64.2978 43.0338 64.3214C43.0423 64.3445 43.0409 64.3681 43.0301 64.3907C43.0206 64.4124 43.0036 64.4266 42.9791 64.4346C42.9541 64.4431 42.9301 64.4431 42.9075 64.4332V64.4322ZM43.1512 65.7283L43.7043 65.7594C43.7783 65.7637 43.8306 65.7585 43.8613 65.7439C43.8914 65.7302 43.9103 65.6981 43.9183 65.6486L42.9485 65.5944C42.9523 65.6444 42.9683 65.6788 42.9975 65.6958C43.0263 65.7137 43.0772 65.7245 43.1512 65.7283ZM42.9541 65.4525L43.9282 65.5072L43.9353 65.387L42.9612 65.3323L42.9541 65.4525ZM42.9735 65.1918L43.9409 65.246C43.9372 65.1998 43.9202 65.1691 43.891 65.1531C43.8617 65.1375 43.8113 65.1272 43.7406 65.1239L43.1875 65.0927C43.1168 65.089 43.0659 65.0928 43.0357 65.1055C43.0051 65.1177 42.9848 65.147 42.9739 65.1922L42.9735 65.1918Z" fill="#162142"/>
<path d="M45.6507 66.4075C45.622 66.4056 45.5998 66.3952 45.5819 66.3764C45.564 66.3575 45.556 66.333 45.5578 66.3038L45.6121 65.3316C45.572 65.4004 45.5305 65.466 45.4881 65.5301C45.4461 65.5937 45.407 65.6484 45.3716 65.6937C45.3546 65.7168 45.3325 65.7305 45.3047 65.7357C45.2764 65.7418 45.2514 65.7357 45.2288 65.7192C45.2057 65.7036 45.1925 65.6824 45.1882 65.655C45.184 65.6282 45.191 65.6041 45.208 65.5829C45.2429 65.5409 45.282 65.4905 45.324 65.4316C45.366 65.3726 45.4065 65.3099 45.4466 65.2448C45.4862 65.1793 45.523 65.1166 45.5564 65.0553C45.5894 64.9945 45.6163 64.9398 45.6366 64.8922L45.638 64.871L45.3485 64.8545C45.3198 64.8531 45.2981 64.8427 45.2811 64.8229C45.2651 64.8031 45.2575 64.7809 45.2589 64.7555C45.2603 64.7286 45.2703 64.7064 45.2882 64.6894C45.3066 64.6725 45.3301 64.6645 45.3584 64.6659L45.6479 64.6824L45.6677 64.3222C45.6696 64.2911 45.68 64.2675 45.6998 64.251C45.7196 64.2349 45.7431 64.2274 45.7714 64.2293C45.7997 64.2307 45.8228 64.2406 45.8417 64.2585C45.8601 64.2774 45.869 64.3019 45.8671 64.333L45.8473 64.6932L46.0826 64.7064C46.1109 64.7078 46.1326 64.7182 46.1491 64.7371C46.1656 64.7559 46.1731 64.779 46.1717 64.8059C46.1703 64.8314 46.1604 64.8526 46.142 64.8705C46.1241 64.8884 46.1005 64.8964 46.0727 64.895L45.8374 64.8818L45.8318 64.9808C45.8516 65.0119 45.8775 65.0497 45.9086 65.0935C45.9402 65.1383 45.9718 65.1812 46.0039 65.2241C46.0359 65.267 46.0633 65.301 46.0859 65.3278C46.1052 65.3495 46.1137 65.3745 46.1114 65.4028C46.109 65.4311 46.0972 65.4532 46.076 65.4716C46.0538 65.4905 46.0289 65.4976 46.001 65.4928C45.9727 65.4886 45.9501 65.4754 45.9327 65.4542C45.9181 65.4344 45.9001 65.4094 45.8789 65.3787C45.8577 65.349 45.8365 65.3175 45.8148 65.2845L45.7568 66.316C45.7549 66.3453 45.7436 66.3688 45.7233 66.3853C45.7026 66.4023 45.6781 66.4103 45.6503 66.4089L45.6507 66.4075ZM46.0982 65.7078C46.0703 65.7187 46.0435 65.7206 46.0152 65.713C45.9869 65.7055 45.9671 65.6862 45.9544 65.6574C45.9435 65.6315 45.943 65.606 45.9544 65.5796C45.9657 65.5532 45.9836 65.5353 46.0091 65.5258C46.1142 65.4862 46.2179 65.4377 46.3198 65.3806C46.4225 65.3231 46.5178 65.2599 46.6064 65.1911C46.5711 65.1487 46.538 65.1044 46.5079 65.0581C46.4777 65.0124 46.4485 64.9653 46.4207 64.9162C46.3909 64.9539 46.3594 64.9903 46.3273 65.0251C46.2957 65.061 46.2637 65.0935 46.2302 65.1227C46.2085 65.1421 46.1835 65.1534 46.1552 65.1562C46.1264 65.1595 46.1029 65.151 46.0835 65.1308C46.0642 65.1124 46.0543 65.0888 46.0553 65.06C46.0562 65.0308 46.067 65.0068 46.0887 64.9874C46.1486 64.9374 46.2071 64.8766 46.2646 64.8045C46.3216 64.7333 46.3754 64.6574 46.4258 64.5787C46.4758 64.4994 46.5182 64.4231 46.5527 64.3495C46.5663 64.3241 46.5871 64.3057 46.613 64.2953C46.6394 64.2854 46.6653 64.2859 46.6917 64.2991C46.7182 64.3113 46.7351 64.3307 46.7417 64.3566C46.7488 64.383 46.7464 64.4084 46.7337 64.4334C46.7233 64.4565 46.7106 64.4796 46.6979 64.5032C46.6847 64.5268 46.671 64.5508 46.6573 64.5749L46.9841 64.5933C47.0505 64.597 47.1005 64.615 47.1349 64.6456C47.1684 64.6758 47.1873 64.7149 47.1892 64.7611C47.1915 64.8083 47.1755 64.8554 47.1415 64.9044C47.1052 64.9587 47.067 65.0105 47.0265 65.0596C46.9859 65.1086 46.943 65.1553 46.8983 65.2001C46.9732 65.2656 47.0529 65.3255 47.1373 65.3797C47.2217 65.4344 47.308 65.4839 47.3975 65.5277C47.423 65.54 47.4405 65.5612 47.4485 65.5919C47.4565 65.6225 47.4537 65.6508 47.4381 65.6767C47.4225 65.706 47.3985 65.7229 47.366 65.7276C47.3334 65.7324 47.3018 65.7276 47.2712 65.7121C47.1783 65.6612 47.0868 65.6046 46.9977 65.5428C46.9082 65.4815 46.8242 65.4132 46.7446 65.3373C46.6507 65.4141 46.5494 65.4834 46.4414 65.5438C46.3334 65.6046 46.2193 65.6597 46.0982 65.7078ZM46.6564 66.4117C46.5333 66.4047 46.4386 66.3877 46.3688 66.3608C46.2995 66.333 46.2519 66.2901 46.2259 66.2298C46.2005 66.1704 46.1906 66.0883 46.1967 65.9851C46.2024 65.8813 46.2217 65.8017 46.2533 65.746C46.2853 65.6909 46.3377 65.6531 46.4098 65.6333C46.4819 65.6135 46.5781 65.6074 46.7012 65.6145C46.8233 65.6216 46.919 65.6381 46.9874 65.6654C47.0557 65.6928 47.1033 65.7361 47.1297 65.7951C47.1566 65.854 47.1665 65.9356 47.1609 66.0393C47.1547 66.1425 47.1354 66.2227 47.1024 66.2788C47.0699 66.3358 47.0175 66.3731 46.9463 66.3934C46.8756 66.4122 46.7785 66.4188 46.6564 66.4117ZM46.6672 66.2189C46.7427 66.2232 46.7997 66.2213 46.8407 66.2123C46.8813 66.2034 46.9096 66.184 46.9256 66.1557C46.9412 66.1265 46.9511 66.0841 46.9544 66.0275C46.9577 65.9723 46.9525 65.9299 46.9402 65.9002C46.928 65.8705 46.9016 65.8483 46.8624 65.8342C46.8228 65.8201 46.7662 65.8111 46.6908 65.8068C46.6154 65.8026 46.5569 65.805 46.5168 65.8149C46.4758 65.8243 46.448 65.8431 46.4306 65.8714C46.4145 65.8997 46.4046 65.9403 46.4013 65.994C46.398 66.0506 46.4032 66.094 46.4159 66.1242C46.4296 66.1548 46.4555 66.177 46.4951 66.1916C46.5338 66.2057 46.5918 66.2147 46.6672 66.2189ZM46.7578 65.06C46.7893 65.0294 46.819 64.9964 46.8469 64.9634C46.8747 64.9308 46.8992 64.8974 46.9218 64.8644C46.968 64.7988 46.9511 64.7639 46.8709 64.7597L46.5513 64.7418L46.5456 64.7507C46.5456 64.7507 46.5484 64.754 46.5494 64.7559C46.5494 64.7578 46.5508 64.7592 46.5527 64.7611C46.5795 64.8163 46.6092 64.8686 46.6437 64.9172C46.6776 64.9662 46.7153 65.0143 46.7573 65.0605L46.7578 65.06Z" fill="#162142"/>
<path d="M49.3805 66.3853C49.3503 66.39 49.3225 66.3843 49.2971 66.3673C49.2721 66.3513 49.2565 66.3287 49.2499 66.2994C49.2438 66.2693 49.2485 66.2424 49.2655 66.2169C49.2815 66.1915 49.3051 66.1764 49.3353 66.1698C49.5163 66.1344 49.6568 66.0651 49.7553 65.9633C49.8539 65.8614 49.9076 65.7266 49.9175 65.5606C49.9237 65.4508 49.9039 65.3523 49.8581 65.2646C49.8124 65.1769 49.7469 65.1043 49.6592 65.0477C49.5715 64.9911 49.4663 64.9553 49.3428 64.9402C49.3041 65.1995 49.2485 65.423 49.1735 65.612C49.1 65.8006 49.0161 65.9449 48.9232 66.0467C48.8308 66.1476 48.7365 66.1953 48.6427 66.1905C48.5639 66.1858 48.4941 66.158 48.4333 66.1066C48.3725 66.0552 48.3258 65.9845 48.2942 65.8959C48.2627 65.8068 48.2495 65.7044 48.2561 65.5885C48.2636 65.4598 48.2947 65.3414 48.3503 65.2334C48.4055 65.1255 48.48 65.0326 48.5738 64.9553C48.6667 64.8779 48.7747 64.819 48.8968 64.7794C49.0184 64.7403 49.149 64.7242 49.2886 64.7318C49.4597 64.7417 49.6101 64.7832 49.7403 64.8563C49.8694 64.9298 49.9694 65.0279 50.0401 65.1505C50.1099 65.274 50.141 65.414 50.1321 65.5729C50.1198 65.7926 50.0477 65.9727 49.9166 66.1123C49.785 66.2523 49.6064 66.3433 49.3805 66.3857V66.3853ZM48.6577 65.9689C48.6936 65.9708 48.7341 65.9463 48.7784 65.8959C48.8237 65.8449 48.8676 65.7728 48.9128 65.6799C48.9585 65.588 49.0015 65.4777 49.0406 65.3513C49.0802 65.224 49.1108 65.0859 49.1335 64.9359C48.9972 64.9487 48.8808 64.9873 48.7836 65.0519C48.686 65.117 48.6106 65.1971 48.5578 65.2933C48.5045 65.389 48.4734 65.4913 48.4663 65.5998C48.4597 65.7139 48.4753 65.8039 48.513 65.868C48.5503 65.9322 48.5988 65.9656 48.6587 65.9689H48.6577Z" fill="#162142"/>
<path d="M52.01 66.7667C51.9803 66.7648 51.9558 66.7539 51.9364 66.7332C51.9171 66.712 51.9086 66.6865 51.91 66.6554L51.9294 66.3117L51.5762 66.2919C51.5493 66.2905 51.5267 66.2796 51.5083 66.2584C51.4895 66.2381 51.4815 66.2132 51.4833 66.1853C51.4848 66.1585 51.4951 66.1363 51.5159 66.117C51.5361 66.0986 51.5607 66.0901 51.5871 66.0915L51.9402 66.1113L51.9774 65.448C51.9053 65.546 51.8228 65.6446 51.7295 65.7445C51.6356 65.8435 51.5361 65.9383 51.431 66.0279C51.3259 66.1165 51.2193 66.1962 51.1118 66.266C51.0854 66.2834 51.0567 66.2914 51.0241 66.2886C50.9916 66.2858 50.9666 66.2716 50.9477 66.2452C50.9284 66.2188 50.9228 66.1915 50.9308 66.1627C50.9388 66.1335 50.9567 66.1108 50.984 66.0939C51.0996 66.026 51.2137 65.9449 51.3278 65.8482C51.4409 65.7525 51.547 65.6516 51.6455 65.546C51.7445 65.4409 51.8275 65.34 51.894 65.2443L51.1382 65.2018C51.1113 65.2004 51.0892 65.1901 51.0699 65.1707C51.0515 65.1509 51.0425 65.1259 51.0444 65.0981C51.0458 65.0712 51.0571 65.0491 51.0774 65.0302C51.0986 65.0114 51.1222 65.0029 51.1486 65.0043L51.9987 65.0524L52.0194 64.6827C52.0213 64.6516 52.0326 64.6266 52.0538 64.6087C52.0755 64.5899 52.1014 64.5814 52.1311 64.5833C52.1608 64.5847 52.1849 64.5955 52.2042 64.6167C52.2236 64.637 52.2325 64.6634 52.2306 64.6945L52.2099 65.0642L53.0576 65.1118C53.0859 65.1132 53.1085 65.124 53.1264 65.1453C53.1443 65.166 53.1528 65.1896 53.1514 65.216C53.1495 65.2443 53.1387 65.2674 53.1189 65.2853C53.0991 65.3023 53.075 65.3103 53.0472 65.3089L52.2985 65.2669C52.3589 65.3772 52.4324 65.4909 52.5215 65.6054C52.6106 65.7209 52.7068 65.8313 52.811 65.9359C52.9152 66.0406 53.0185 66.133 53.1212 66.2127C53.1439 66.2297 53.1552 66.2532 53.1552 66.2829C53.1552 66.3126 53.1453 66.3381 53.1274 66.3593C53.1071 66.3805 53.0816 66.3928 53.0519 66.3966C53.0218 66.4003 52.9939 66.3918 52.968 66.3716C52.8718 66.29 52.7757 66.2004 52.6799 66.1019C52.5842 66.0029 52.4937 65.8973 52.4107 65.7869C52.3273 65.6757 52.2533 65.563 52.1887 65.4498L52.1509 66.1226L52.514 66.1429C52.5409 66.1443 52.563 66.1552 52.5828 66.1759C52.6026 66.1971 52.6116 66.2207 52.6102 66.2471C52.6083 66.2754 52.597 66.299 52.5753 66.3169C52.5536 66.3357 52.5295 66.3442 52.5031 66.3428L52.1401 66.3225L52.1208 66.6662C52.1194 66.6974 52.1076 66.7214 52.0864 66.7403C52.0647 66.7587 52.0392 66.7671 52.0095 66.7657L52.01 66.7667Z" fill="#162142"/>
<path d="M122.191 39.4305C118.388 39.4305 115.008 42.8109 115.008 46.6143C115.008 42.8109 111.627 39.4305 107.824 39.4305C111.627 39.4305 115.008 36.05 115.008 32.2466C115.008 36.05 118.388 39.4305 122.191 39.4305Z" fill="#F5CA36"/>
<path d="M30.4501 26.2081C28.6797 25.5141 26.4887 26.4707 25.7947 28.2411C26.4887 26.4707 25.5321 24.2797 23.7617 23.5857C25.5321 24.2797 27.7231 23.3231 28.4171 21.5527C27.7231 23.3231 28.6797 25.5141 30.4501 26.2081Z" fill="#F5CA36"/>
<path d="M16.0924 46.1314C12.3578 45.1309 8.14894 47.5609 7.14846 51.295C8.14894 47.5604 5.71895 43.3516 1.98486 42.3511C5.71942 43.3516 9.92829 40.9216 10.9288 37.1875C9.92829 40.9221 12.3583 45.1309 16.0924 46.1314Z" fill="#F5CA36"/>
</g>
</svg>
