<svg width="214" height="274" viewBox="0 0 214 274" fill="none" xmlns="http://www.w3.org/2000/svg">
<path d="M180.051 86.7441C169.357 67.8099 167.602 51.7261 161.993 31.6781C156.385 11.6301 147.634 12.3015 147.634 12.3015C132.838 8.39541 116.821 66.8842 116.821 66.8842C111.825 64.0534 99.89 66.8193 99.1447 66.9958C99.1293 66.9997 99.1215 66.9817 99.1297 66.9689C107.92 52.5098 93.9836 41.7906 93.9836 41.7906C94.6737 40.7781 101.267 28.2643 89.5906 12.8053C77.9138 -2.6537 55.8 3.8848 50.6833 6.5457C45.5659 9.20659 27.0942 22.9371 29.9088 42.3726C32.7234 61.8081 46.231 66.0567 58.4742 62.8018C70.7175 59.547 71.6306 68.0678 71.6306 68.0678C71.6306 68.0678 30.8613 98.2142 10.7186 168.342C-9.42408 238.469 11.7036 252.504 20.293 256.695C20.293 256.695 43.2924 266.382 54.8126 242.559C54.8126 242.559 58.8804 246.596 67.6124 245.692C67.6124 245.692 83.9101 273.911 99.163 271.198C106.404 268.789 100.37 253.442 98.8385 250.709C98.754 250.558 98.6827 250.445 98.6287 250.376C98.6287 250.376 103.269 250.835 106.249 250.871C109.228 250.908 115.61 250.582 115.61 250.582C114.544 251.887 106.993 268.659 114.569 271.386C129.753 274.468 146.731 246.654 146.731 246.654C155.438 247.77 159.603 243.833 159.603 243.833C170.542 267.929 193.769 258.804 193.769 258.804C235.618 226.902 180.051 86.7441 180.051 86.7441ZM71.1651 34.9512C67.7934 32.8636 62.3846 30.6143 60.1364 36.7276C57.8875 42.8408 61.9459 44.3907 61.9459 44.3907C61.9459 44.3907 64.6201 47.9711 55.808 46.2265C50.6662 44.3904 50.912 35.3871 53.5352 32.008C55.8898 28.3526 58.7916 24.4309 63.9758 22.7203C63.9758 22.7203 75.2796 20.6743 77.4551 31.7536C77.9507 35.7167 74.5368 37.0388 71.1651 34.9512ZM145.666 25.2498C151.385 24.3601 150.626 37.4439 150.626 37.4439L139.271 37.3261C139.271 37.3261 139.947 26.1396 145.666 25.2498ZM147.101 59.6543L136.246 59.5223C136.246 59.5223 131.747 58.8972 133.035 53.0412C133.035 53.0412 133.838 49.4788 139.448 48.164L151.564 48.3113C151.564 48.3113 155.179 48.7117 156.73 52.5038C158.229 56.1704 157.454 60.6058 147.102 59.6543L147.101 59.6543Z" fill="#E67D37"/>
<path d="M125.51 41.0236C125.391 41.3463 124.306 44.2109 124.306 44.2109L164.759 42.3346C164.613 41.7138 163.834 38.6247 163.674 37.9706C163.167 35.9899 162.635 33.9766 162.062 31.9206C161.206 29.0039 160.202 26.0466 159.005 23.3405C155.191 15.0316 150.955 12.9659 148.897 12.4629C148.486 12.3809 148.068 12.3199 147.636 12.3033C139.734 10.2174 131.483 25.9299 125.511 41.0245L125.51 41.0236ZM150.628 37.4449L139.273 37.3271C139.273 37.3271 139.949 26.1406 145.668 25.2509C151.387 24.3611 150.628 37.4449 150.628 37.4449Z" fill="#ECC33E"/>
<path d="M134.859 82.9825C142.643 82.604 153.919 84.5503 162.723 96.2604C168.387 103.793 171.15 113.078 171.269 122.516C171.45 136.928 165.788 151.83 147.123 158.006C133.439 162.406 125.318 157.649 122.741 156.358C120.164 155.067 111.635 150.68 99.7795 156.728C84.1885 164.683 67.1154 150.259 61.7636 141.067C56.2229 131.55 50.6448 96.044 79.5936 84.1578C98.3253 78.0384 106.071 84.6928 110.254 86.7514C113.809 88.5018 117.855 88.4246 122.914 86.0927C126.687 84.3529 130.711 83.1841 134.858 82.9817L134.859 82.9825Z" fill="white"/>
<path d="M63.9745 22.717C63.9745 22.717 66.3035 22.2997 69.0489 22.8743L89.5987 12.6935C77.9219 -2.7655 55.8082 3.773 50.6915 6.4339C45.574 9.09479 27.1023 22.8253 29.9169 42.2608L55.0047 29.8318C57.1223 26.8897 59.8119 24.0899 63.9753 22.7162L63.9745 22.717Z" fill="#ECC33E"/>
<path d="M130.879 130.181C132.902 130.206 134.588 126.384 134.645 121.645C134.703 116.906 133.11 113.045 131.088 113.02C129.065 112.996 127.379 116.817 127.321 121.556C127.264 126.295 128.857 130.157 130.879 130.181Z" fill="#231815"/>
<path d="M98.7068 129.791C100.729 129.815 102.415 125.994 102.473 121.255C102.531 116.516 100.938 112.654 98.9154 112.63C96.893 112.605 95.2067 116.427 95.1491 121.166C95.0915 125.905 96.6843 129.766 98.7068 129.791Z" fill="#231815"/>
<path d="M177.683 195.662C177.683 195.662 180.952 235.596 159.603 243.831" stroke="#CD5718" stroke-width="2" stroke-linecap="round" stroke-linejoin="round"/>
<path d="M38.9283 184.801C38.9283 184.801 29.1141 233.752 54.8152 242.559" stroke="#CD5718" stroke-width="2" stroke-linecap="round" stroke-linejoin="round"/>
<g opacity="0.35">
<path d="M171.246 124.476C171.263 123.817 171.271 123.159 171.263 122.502C171.144 113.064 168.382 103.779 162.718 96.2461C153.913 84.536 142.637 82.5897 134.853 82.9682C131.492 83.1315 128.215 83.9383 125.083 85.1618L171.247 124.476L171.246 124.476Z" fill="#E8F5FA"/>
<path d="M117.373 87.8102C114.744 88.1857 112.409 87.8008 110.255 86.7408C106.072 84.6815 98.3266 78.0278 79.5949 84.1472C50.6461 96.0334 56.2234 131.54 61.7649 141.056C67.1175 150.249 84.1898 164.672 99.7808 156.718C111.636 150.67 120.166 155.057 122.743 156.347C125.32 157.638 133.441 162.395 147.124 157.995C159.837 153.788 166.513 145.534 169.424 136.144L117.373 87.8102Z" fill="url(#paint0_linear_110_144)"/>
</g>
<mask id="mask0_110_144" style="mask-type:luminance" maskUnits="userSpaceOnUse" x="3" y="3" width="208" height="269">
<path d="M179.429 85.8562C168.505 67.0534 166.555 50.9922 160.703 31.0138C154.851 11.0355 146.109 11.8133 146.109 11.8133C131.267 8.08738 115.962 66.7666 115.962 66.7666C110.932 63.9967 99.0316 66.9076 98.2885 67.0931C98.2731 67.0972 98.2651 67.0793 98.2731 67.0664C106.887 52.5015 92.8213 41.9525 92.8213 41.9525C93.499 40.9317 99.9393 28.3387 88.0762 13.0228C76.2123 -2.29309 54.1796 4.5138 49.0957 7.23672C44.0109 9.95963 25.7076 23.9137 28.7583 43.3136C31.809 62.7134 45.3672 66.7974 57.57 63.394C69.7728 59.9905 70.7894 68.4995 70.7894 68.4995C70.7894 68.4995 30.3897 99.1394 11.1012 169.507C-8.18735 239.874 13.1094 253.651 21.7492 257.737C21.7492 257.737 44.8646 267.144 56.0943 243.182C56.0943 243.182 60.2108 247.169 68.9313 246.159C68.9313 246.159 85.5709 274.178 100.79 271.28C108.001 268.783 101.781 253.51 100.216 250.796C100.13 250.647 100.057 250.535 100.002 250.466C100.002 250.466 104.648 250.869 107.628 250.869C110.607 250.869 116.985 250.466 116.985 250.466C115.935 251.783 108.588 268.646 116.197 271.28C131.417 274.178 148.056 246.159 148.056 246.159C156.776 247.169 160.893 243.182 160.893 243.182C172.123 267.144 195.238 257.737 195.238 257.737C236.696 225.329 179.429 85.8562 179.429 85.8562ZM144.299 24.7846C150.007 23.8254 149.406 36.9174 149.406 36.9174L138.051 36.9377C138.051 36.9377 138.591 25.7438 144.299 24.7846ZM146.152 59.169H135.296C135.296 59.169 130.79 58.5987 132.007 52.7275C132.007 52.7275 132.766 49.1556 138.36 47.7726H150.476C150.476 47.7726 154.097 48.1291 155.693 51.902C157.237 55.5501 156.516 59.9946 146.153 59.169H146.152Z" fill="white"/>
</mask>
<g mask="url(#mask0_110_144)">
<path d="M195.357 160.243C203.263 160.339 209.818 148.39 209.999 133.555C210.179 118.72 203.917 106.615 196.011 106.519C188.105 106.423 181.55 118.371 181.369 133.207C181.189 148.042 187.452 160.147 195.357 160.243Z" fill="#EB9565"/>
<path d="M205.288 208.563C218.637 208.725 229.63 194.826 229.84 177.518C230.051 160.21 219.399 146.047 206.05 145.885C192.7 145.722 181.708 159.622 181.497 176.93C181.287 194.238 191.938 208.401 205.288 208.563Z" fill="#E79F7A"/>
<path d="M27.3893 174.648C36.1658 174.755 43.4471 161.148 43.6525 144.258C43.8579 127.367 36.9096 113.588 28.133 113.481C19.3565 113.374 12.0752 126.98 11.8698 143.871C11.6644 160.762 18.6127 174.541 27.3893 174.648Z" fill="#E79F7A"/>
<path d="M13.6091 200.465C21.7608 199.6 27.2136 187.904 25.7881 174.34C24.3627 160.775 16.5988 150.48 8.44706 151.345C0.295311 152.209 -5.15743 163.906 -3.73199 177.47C-2.30654 191.034 5.45732 201.329 13.6091 200.465Z" fill="#EB9565"/>
<path d="M78.2983 215.484C85.0359 213.901 88.5818 204.392 86.2182 194.245C83.8547 184.097 76.4767 177.155 69.7391 178.738C63.0015 180.321 59.4556 189.83 61.8191 199.977C64.1827 210.124 71.5606 217.067 78.2983 215.484Z" fill="#D66D33"/>
</g>
<defs>
<linearGradient id="paint0_linear_110_144" x1="58.2364" y1="96.1889" x2="185.438" y2="178.692" gradientUnits="userSpaceOnUse">
<stop stop-color="white"/>
<stop offset="1" stop-color="#E0F1F8"/>
</linearGradient>
</defs>
</svg>
