<svg width="390" height="84" viewBox="0 0 390 84" fill="none" xmlns="http://www.w3.org/2000/svg">
<path fill-rule="evenodd" clip-rule="evenodd" d="M229.986 35.75H390V83.75H0V35.75H160.014C160.543 16.8825 176.004 1.75 195 1.75C213.996 1.75 229.457 16.8825 229.986 35.75Z" fill="#FAFAFA"/>
<path fill-rule="evenodd" clip-rule="evenodd" d="M195 1.5C176.084 1.5 160.75 16.8342 160.75 35.75L160 35.75L159.25 35.75H0V34.25L159.281 34.25C160.067 15.2015 175.758 0 195 0C214.242 0 229.933 15.2015 230.719 34.25L390 34.25V35.75L230.75 35.75H230H229.25C229.25 16.8342 213.916 1.5 195 1.5Z" fill="black"/>
</svg>
