<svg width="390" height="118" viewBox="0 0 390 118" fill="none" xmlns="http://www.w3.org/2000/svg">
<path fill-rule="evenodd" clip-rule="evenodd" d="M390 36H229.986C229.457 17.1325 213.996 2 195 2C176.004 2 160.543 17.1325 160.014 36H0V78V84V118H390V84V78V36Z" fill="#FAFAFA"/>
<path fill-rule="evenodd" clip-rule="evenodd" d="M195 1.75C176.084 1.75 160.75 17.0842 160.75 36L160 36L159.25 36H0V34.5L159.281 34.5C160.067 15.4515 175.758 0.25 195 0.25C214.242 0.25 229.933 15.4515 230.719 34.5L390 34.5V36L230.75 36H230H229.25C229.25 17.0842 213.916 1.75 195 1.75Z" fill="black"/>
</svg>
