<svg width="390" height="44" viewBox="0 0 390 44" fill="none" xmlns="http://www.w3.org/2000/svg">
<rect width="390" height="44" fill="#FAFAFA"/>
<path d="M357.292 22.75H356.512C356.182 21.1832 354.752 20 353.042 20H344.542C342.589 20 341 21.5421 341 23.4375V27.5625C341 29.4579 342.589 31 344.542 31H353.042C354.752 31 356.183 29.8168 356.512 28.25H357.292C357.683 28.25 358 27.942 358 27.5625V23.4375C358 23.058 357.683 22.75 357.292 22.75ZM353.042 29.625H344.542C343.37 29.625 342.417 28.6996 342.417 27.5625V23.4375C342.417 22.3004 343.37 21.375 344.542 21.375H353.042C354.213 21.375 355.167 22.3004 355.167 23.4375V27.5625C355.167 28.6996 354.213 29.625 353.042 29.625ZM348.792 22.75H344.542C344.151 22.75 343.833 23.058 343.833 23.4375V27.5625C343.833 27.942 344.151 28.25 344.542 28.25H348.792C349.183 28.25 349.5 27.942 349.5 27.5625V23.4375C349.5 23.058 349.183 22.75 348.792 22.75Z" fill="#0B0B0B"/>
<path d="M323.083 29.5556C323.083 28.7611 323.72 28.1111 324.5 28.1111C325.28 28.1111 325.917 28.7611 325.917 29.5556C325.917 30.35 325.28 31 324.5 31C323.72 31 323.083 30.35 323.083 29.5556ZM329.007 26.4933C329.425 26.0672 329.425 25.3811 329.007 24.9622C326.52 22.4272 322.473 22.4272 319.986 24.9622C319.568 25.3883 319.568 26.0744 319.986 26.4933C320.404 26.9122 321.077 26.9194 321.488 26.4933C323.146 24.8033 325.846 24.8033 327.505 26.4933C327.71 26.7028 327.987 26.8111 328.256 26.8111C328.525 26.8111 328.802 26.7028 329.007 26.4933ZM332.671 23.1206C333.096 22.7089 333.11 22.0228 332.707 21.5894C332.643 21.5244 332.579 21.4522 332.515 21.3872C330.375 19.2061 327.526 18 324.5 18C321.474 18 318.625 19.1989 316.485 21.38C316.421 21.445 316.357 21.5172 316.293 21.5822C315.89 22.0156 315.904 22.7017 316.329 23.1133C316.754 23.525 317.427 23.5106 317.831 23.0772L317.987 22.9111C319.731 21.1344 322.041 20.1594 324.5 20.1594C326.959 20.1594 329.276 21.1344 331.02 22.9111L331.176 23.07C331.381 23.2939 331.665 23.4022 331.941 23.4022C332.203 23.4022 332.473 23.3011 332.678 23.1061L332.671 23.1206Z" fill="#0B0B0B"/>
<path d="M300 19C299.47 19 298.961 19.2107 298.586 19.5858C298.211 19.9609 298 20.4696 298 21V29C298 29.5304 298.211 30.0391 298.586 30.4142C298.961 30.7893 299.47 31 300 31C300.53 31 301.039 30.7893 301.414 30.4142C301.789 30.0391 302 29.5304 302 29V21C302 20.4696 301.789 19.9609 301.414 19.5858C301.039 19.2107 300.53 19 300 19Z" fill="#0B0B0B"/>
<path d="M306 15C305.47 15 304.961 15.2107 304.586 15.5858C304.211 15.9609 304 16.4696 304 17V29C304 29.5304 304.211 30.0391 304.586 30.4142C304.961 30.7893 305.47 31 306 31C306.53 31 307.039 30.7893 307.414 30.4142C307.789 30.0391 308 29.5304 308 29V17C308 16.4696 307.789 15.9609 307.414 15.5858C307.039 15.2107 306.53 15 306 15Z" fill="#0B0B0B"/>
<path d="M294 23C293.47 23 292.961 23.2107 292.586 23.5858C292.211 23.9609 292 24.4696 292 25V29C292 29.5304 292.211 30.0391 292.586 30.4142C292.961 30.7893 293.47 31 294 31C294.53 31 295.039 30.7893 295.414 30.4142C295.789 30.0391 296 29.5304 296 29V25C296 24.4696 295.789 23.9609 295.414 23.5858C295.039 23.2107 294.53 23 294 23Z" fill="#0B0B0B"/>
<path d="M41.312 29V27.096H43.856V19.608H41.712V18.152C42.896 17.928 43.712 17.624 44.464 17.144H46.208V27.096H48.432V29H41.312ZM54.7659 29.224C52.8939 29.224 51.6299 28.52 50.7979 27.576L51.9019 26.088C52.6059 26.776 53.4699 27.304 54.5419 27.304C55.7419 27.304 56.5579 26.712 56.5579 25.64C56.5579 24.488 55.8699 23.752 53.2939 23.752V22.072C55.4699 22.072 56.1739 21.32 56.1739 20.264C56.1739 19.336 55.5979 18.792 54.5899 18.792C53.7419 18.792 53.0539 19.176 52.3499 19.832L51.1499 18.392C52.1739 17.496 53.3099 16.936 54.7019 16.936C56.9899 16.936 58.5419 18.072 58.5419 20.088C58.5419 21.368 57.8219 22.296 56.5739 22.792V22.872C57.9019 23.24 58.9259 24.232 58.9259 25.784C58.9259 27.96 57.0219 29.224 54.7659 29.224ZM63.3558 23.144C62.5238 23.144 61.8998 22.488 61.8998 21.624C61.8998 20.744 62.5238 20.088 63.3558 20.088C64.2038 20.088 64.8278 20.744 64.8278 21.624C64.8278 22.488 64.2038 23.144 63.3558 23.144ZM63.3558 29.224C62.5238 29.224 61.8998 28.552 61.8998 27.688C61.8998 26.808 62.5238 26.152 63.3558 26.152C64.2038 26.152 64.8278 26.808 64.8278 27.688C64.8278 28.552 64.2038 29.224 63.3558 29.224ZM71.6469 29.224C69.2309 29.224 67.6309 27.112 67.6309 23.032C67.6309 18.936 69.2309 16.936 71.6469 16.936C74.0629 16.936 75.6469 18.952 75.6469 23.032C75.6469 27.112 74.0629 29.224 71.6469 29.224ZM71.6469 27.384C72.6709 27.384 73.4229 26.36 73.4229 23.032C73.4229 19.72 72.6709 18.76 71.6469 18.76C70.6229 18.76 69.8549 19.72 69.8549 23.032C69.8549 26.36 70.6229 27.384 71.6469 27.384ZM82.0288 29.224C79.6128 29.224 78.0128 27.112 78.0128 23.032C78.0128 18.936 79.6128 16.936 82.0288 16.936C84.4448 16.936 86.0288 18.952 86.0288 23.032C86.0288 27.112 84.4448 29.224 82.0288 29.224ZM82.0288 27.384C83.0528 27.384 83.8048 26.36 83.8048 23.032C83.8048 19.72 83.0528 18.76 82.0288 18.76C81.0048 18.76 80.2368 19.72 80.2368 23.032C80.2368 26.36 81.0048 27.384 82.0288 27.384Z" fill="#0B0B0B"/>
</svg>
