<svg width="23" height="23" viewBox="0 0 23 23" fill="none" xmlns="http://www.w3.org/2000/svg">
<path d="M19.1659 0H3.83317C1.71918 0 0 1.74366 0 3.88776V15.551C0 17.6951 1.71918 19.4388 3.83317 19.4388H6.63427L10.2269 22.5063C10.593 22.8367 11.052 23.001 11.5081 23C11.9566 23 12.4003 22.8425 12.7463 22.5296L16.4328 19.4388H19.1668C21.2808 19.4388 23 17.6951 23 15.551V3.88776C23 1.74366 21.2799 0 19.1659 0ZM11.4995 17.4949C10.7061 17.4949 10.0621 16.8418 10.0621 16.037C10.0621 15.2322 10.7061 14.5791 11.4995 14.5791C12.293 14.5791 12.937 15.2322 12.937 16.037C12.937 16.8418 12.293 17.4949 11.4995 17.4949ZM13.1085 11.3046C12.8795 11.4125 12.4578 11.9267 12.4578 12.4408V12.6352C12.4578 13.1727 12.0295 13.6072 11.4995 13.6072C10.9696 13.6072 10.5412 13.1727 10.5412 12.6352V12.4408C10.5412 11.0957 11.4487 9.94295 12.3026 9.54154C13.004 9.21205 13.6298 8.35188 13.3481 7.2429C13.1852 6.60531 12.6543 6.06685 12.0266 5.90259C11.4104 5.73834 10.8086 5.8608 10.3285 6.23791C9.85509 6.61017 9.58389 7.17098 9.58389 7.77649C9.58389 8.31398 9.15554 8.74844 8.6256 8.74844C8.09566 8.74844 7.66731 8.31398 7.66731 7.77649C7.66731 6.56449 8.20874 5.44384 9.15554 4.70128C10.1004 3.95677 11.3232 3.70795 12.5067 4.02092C13.8081 4.3611 14.8679 5.43509 15.2033 6.75693C15.6729 8.60167 14.7922 10.5154 13.1085 11.3056V11.3046Z" fill="#00154D"/>
</svg>
