<svg width="22" height="22" viewBox="0 0 22 22" fill="none" xmlns="http://www.w3.org/2000/svg">
<path d="M21.5985 19.6598L17.3401 15.3996C20.5265 11.1415 19.6576 5.10657 15.3996 1.92023C11.1415 -1.26612 5.10658 -0.397306 1.92023 3.86076C-1.26612 8.11883 -0.397306 14.1538 3.86076 17.3401C7.2812 19.8996 11.9791 19.8996 15.3996 17.3401L19.6598 21.6003C20.1951 22.1357 21.0631 22.1357 21.5985 21.6003C22.1338 21.0649 22.1338 20.1969 21.5985 19.6616L21.5985 19.6598ZM9.66567 16.5178C5.8813 16.5178 2.81349 13.45 2.81349 9.66567C2.81349 5.8813 5.8813 2.81349 9.66567 2.81349C13.45 2.81349 16.5178 5.8813 16.5178 9.66567C16.5138 13.4483 13.4484 16.5138 9.66567 16.5178Z" fill="#4B73A3"/>
</svg>
