<svg width="50" height="70" viewBox="0 0 50 70" fill="none" xmlns="http://www.w3.org/2000/svg">
<path d="M25 50V70" stroke="#FAFAFA" stroke-width="2"/>
<circle cx="25" cy="25" r="24" stroke="#FAFAFA" stroke-width="2"/>
<path d="M22.348 32C22.408 30.848 22.51 29.786 22.654 28.814C22.798 27.83 23.002 26.906 23.266 26.042C23.53 25.166 23.872 24.308 24.292 23.468C24.724 22.628 25.258 21.77 25.894 20.894H19.9V18.662H28.756V20.282C27.988 21.218 27.364 22.118 26.884 22.982C26.416 23.846 26.056 24.722 25.804 25.61C25.564 26.498 25.384 27.458 25.264 28.49C25.156 29.522 25.072 30.692 25.012 32H22.348Z" fill="white"/>
</svg>
