<svg width="50" height="70" viewBox="0 0 50 70" fill="none" xmlns="http://www.w3.org/2000/svg">
<path d="M25 50V70" stroke="#FAFAFA" stroke-width="2"/>
<circle cx="25" cy="25" r="24" stroke="#FAFAFA" stroke-width="2"/>
<path d="M23.914 32.252C23.218 32.252 22.594 32.168 22.042 32C21.49 31.844 20.998 31.628 20.566 31.352C20.146 31.064 19.78 30.746 19.468 30.398L20.71 28.724C21.118 29.096 21.562 29.42 22.042 29.696C22.534 29.96 23.08 30.092 23.68 30.092C24.136 30.092 24.532 30.02 24.868 29.876C25.216 29.732 25.48 29.522 25.66 29.246C25.852 28.97 25.948 28.634 25.948 28.238C25.948 27.794 25.84 27.416 25.624 27.104C25.42 26.78 25.054 26.534 24.526 26.366C23.998 26.198 23.254 26.114 22.294 26.114V24.206C23.11 24.206 23.752 24.122 24.22 23.954C24.688 23.774 25.018 23.534 25.21 23.234C25.414 22.922 25.516 22.568 25.516 22.172C25.516 21.656 25.36 21.254 25.048 20.966C24.736 20.666 24.298 20.516 23.734 20.516C23.266 20.516 22.828 20.624 22.42 20.84C22.024 21.044 21.628 21.326 21.232 21.686L19.864 20.048C20.452 19.556 21.07 19.166 21.718 18.878C22.366 18.578 23.08 18.428 23.86 18.428C24.712 18.428 25.462 18.566 26.11 18.842C26.77 19.118 27.28 19.52 27.64 20.048C28 20.576 28.18 21.218 28.18 21.974C28.18 22.694 27.988 23.312 27.604 23.828C27.22 24.344 26.674 24.74 25.966 25.016V25.106C26.458 25.238 26.902 25.454 27.298 25.754C27.706 26.042 28.024 26.408 28.252 26.852C28.492 27.296 28.612 27.812 28.612 28.4C28.612 29.204 28.396 29.894 27.964 30.47C27.544 31.046 26.974 31.49 26.254 31.802C25.546 32.102 24.766 32.252 23.914 32.252Z" fill="white"/>
</svg>
