<svg width="50" height="50" viewBox="0 0 50 50" fill="none" xmlns="http://www.w3.org/2000/svg">
<circle cx="25" cy="25" r="24" stroke="#FAFAFA" stroke-width="2"/>
<path d="M23.59 32.252C22.762 32.252 22.042 32.102 21.43 31.802C20.83 31.502 20.332 31.148 19.936 30.74L21.34 29.138C21.58 29.414 21.892 29.642 22.276 29.822C22.66 30.002 23.05 30.092 23.446 30.092C23.83 30.092 24.196 30.008 24.544 29.84C24.892 29.66 25.192 29.378 25.444 28.994C25.708 28.598 25.912 28.076 26.056 27.428C26.212 26.78 26.29 25.982 26.29 25.034C26.29 23.894 26.182 22.988 25.966 22.316C25.762 21.644 25.486 21.164 25.138 20.876C24.79 20.576 24.394 20.426 23.95 20.426C23.626 20.426 23.326 20.516 23.05 20.696C22.774 20.876 22.552 21.146 22.384 21.506C22.228 21.866 22.15 22.322 22.15 22.874C22.15 23.39 22.228 23.822 22.384 24.17C22.54 24.506 22.756 24.758 23.032 24.926C23.32 25.094 23.656 25.178 24.04 25.178C24.412 25.178 24.796 25.064 25.192 24.836C25.588 24.608 25.948 24.224 26.272 23.684L26.398 25.466C26.17 25.79 25.888 26.072 25.552 26.312C25.228 26.552 24.892 26.738 24.544 26.87C24.196 27.002 23.86 27.068 23.536 27.068C22.804 27.068 22.15 26.918 21.574 26.618C20.998 26.306 20.542 25.844 20.206 25.232C19.882 24.608 19.72 23.822 19.72 22.874C19.72 21.962 19.912 21.176 20.296 20.516C20.68 19.844 21.19 19.328 21.826 18.968C22.462 18.608 23.158 18.428 23.914 18.428C24.55 18.428 25.15 18.56 25.714 18.824C26.29 19.076 26.8 19.472 27.244 20.012C27.7 20.54 28.054 21.224 28.306 22.064C28.57 22.892 28.702 23.882 28.702 25.034C28.702 26.294 28.564 27.38 28.288 28.292C28.012 29.192 27.628 29.936 27.136 30.524C26.656 31.112 26.11 31.55 25.498 31.838C24.886 32.114 24.25 32.252 23.59 32.252Z" fill="white"/>
</svg>
