<svg width="50" height="70" viewBox="0 0 50 70" fill="none" xmlns="http://www.w3.org/2000/svg">
<path d="M25 50V70" stroke="#FAFAFA" stroke-width="2"/>
<circle cx="25" cy="25" r="24" fill="#FF862F" stroke="#FAFAFA" stroke-width="2"/>
<path d="M19.774 32V30.47C20.986 29.39 22.018 28.388 22.87 27.464C23.734 26.54 24.394 25.682 24.85 24.89C25.306 24.086 25.534 23.342 25.534 22.658C25.534 22.226 25.456 21.848 25.3 21.524C25.144 21.2 24.916 20.954 24.616 20.786C24.328 20.606 23.968 20.516 23.536 20.516C23.056 20.516 22.612 20.654 22.204 20.93C21.808 21.194 21.442 21.512 21.106 21.884L19.63 20.462C20.254 19.79 20.89 19.286 21.538 18.95C22.198 18.602 22.978 18.428 23.878 18.428C24.718 18.428 25.45 18.602 26.074 18.95C26.71 19.286 27.202 19.76 27.55 20.372C27.898 20.984 28.072 21.704 28.072 22.532C28.072 23.336 27.868 24.158 27.46 24.998C27.064 25.826 26.53 26.654 25.858 27.482C25.186 28.31 24.442 29.126 23.626 29.93C23.974 29.882 24.346 29.846 24.742 29.822C25.15 29.786 25.51 29.768 25.822 29.768H28.702V32H19.774Z" fill="white"/>
</svg>
