<svg width="50" height="70" viewBox="0 0 50 70" fill="none" xmlns="http://www.w3.org/2000/svg">
<path d="M25 50V70" stroke="#FAFAFA" stroke-width="2"/>
<circle cx="25" cy="25" r="24" stroke="#FAFAFA" stroke-width="2"/>
<path d="M23.986 32.252C23.278 32.252 22.648 32.168 22.096 32C21.544 31.832 21.052 31.61 20.62 31.334C20.188 31.058 19.804 30.758 19.468 30.434L20.692 28.742C20.944 28.994 21.214 29.222 21.502 29.426C21.802 29.63 22.126 29.792 22.474 29.912C22.834 30.032 23.218 30.092 23.626 30.092C24.082 30.092 24.484 29.996 24.832 29.804C25.192 29.612 25.474 29.336 25.678 28.976C25.882 28.604 25.984 28.16 25.984 27.644C25.984 26.876 25.774 26.282 25.354 25.862C24.946 25.442 24.406 25.232 23.734 25.232C23.35 25.232 23.02 25.286 22.744 25.394C22.468 25.49 22.132 25.664 21.736 25.916L20.53 25.142L20.89 18.662H28.018V20.894H23.176L22.924 23.72C23.188 23.6 23.446 23.51 23.698 23.45C23.95 23.39 24.226 23.36 24.526 23.36C25.27 23.36 25.954 23.51 26.578 23.81C27.202 24.098 27.7 24.554 28.072 25.178C28.444 25.802 28.63 26.6 28.63 27.572C28.63 28.556 28.408 29.402 27.964 30.11C27.532 30.806 26.962 31.34 26.254 31.712C25.558 32.072 24.802 32.252 23.986 32.252Z" fill="white"/>
</svg>
