<svg width="358" height="130" viewBox="0 0 358 130" fill="none" xmlns="http://www.w3.org/2000/svg">
<mask id="path-1-inside-1_840_2074" fill="white">
<path fill-rule="evenodd" clip-rule="evenodd" d="M10 0C4.47715 0 0 4.47716 0 10V40V90V120C0 125.523 4.47715 130 10 130H126C131.523 130 136 125.523 136 120V100H348C353.523 100 358 95.5228 358 90V10C358 4.47715 353.523 0 348 0H10Z"/>
</mask>
<path fill-rule="evenodd" clip-rule="evenodd" d="M10 0C4.47715 0 0 4.47716 0 10V40V90V120C0 125.523 4.47715 130 10 130H126C131.523 130 136 125.523 136 120V100H348C353.523 100 358 95.5228 358 90V10C358 4.47715 353.523 0 348 0H10Z" fill="#FAFAFA"/>
<path d="M136 100V98.5H134.5V100H136ZM1.5 10C1.5 5.30558 5.30558 1.5 10 1.5V-1.5C3.64872 -1.5 -1.5 3.64873 -1.5 10H1.5ZM1.5 40V10H-1.5V40H1.5ZM1.5 90V40H-1.5V90H1.5ZM1.5 120V90H-1.5V120H1.5ZM10 128.5C5.30558 128.5 1.5 124.694 1.5 120H-1.5C-1.5 126.351 3.64873 131.5 10 131.5V128.5ZM126 128.5H10V131.5H126V128.5ZM134.5 120C134.5 124.694 130.694 128.5 126 128.5V131.5C132.351 131.5 137.5 126.351 137.5 120H134.5ZM134.5 100V120H137.5V100H134.5ZM348 98.5H136V101.5H348V98.5ZM356.5 90C356.5 94.6944 352.694 98.5 348 98.5V101.5C354.351 101.5 359.5 96.3513 359.5 90H356.5ZM356.5 10V90H359.5V10H356.5ZM348 1.5C352.694 1.5 356.5 5.30558 356.5 10H359.5C359.5 3.64873 354.351 -1.5 348 -1.5V1.5ZM10 1.5H348V-1.5H10V1.5Z" fill="#4B73A3" mask="url(#path-1-inside-1_840_2074)"/>
</svg>
