<svg width="23" height="23" viewBox="0 0 23 23" fill="none" xmlns="http://www.w3.org/2000/svg">
<path d="M8.62509 11.5C5.45393 11.5 2.87503 8.92112 2.87503 5.75C2.87503 2.57887 5.45393 0 8.62509 0C11.7962 0 14.3751 2.57887 14.3751 5.75C14.3751 8.92112 11.7962 11.5 8.62509 11.5ZM12.7172 18.6683C11.9381 19.4475 11.5001 20.5035 11.5001 21.6056V23H12.8945C13.9966 23 15.0527 22.562 15.8318 21.7829L22.3553 15.2595C23.2149 14.3999 23.2149 13.0046 22.3553 12.145C21.4956 11.2853 20.1003 11.2853 19.2407 12.145L12.7172 18.6683ZM9.58343 21.6056C9.58343 19.9841 10.215 18.4594 11.3612 17.3132L13.6382 15.0362C12.2237 14.0204 10.4958 13.4157 8.62509 13.4157C3.86979 13.4167 0 17.2864 0 22.0417C0 22.5707 0.429338 23 0.958343 23H9.58343V21.6056Z" fill="#4B73A3"/>
</svg>
