<svg width="214" height="30" viewBox="0 0 214 30" fill="none" xmlns="http://www.w3.org/2000/svg">
<line y1="14.25" x2="187" y2="14.25" stroke="#4B73A3" stroke-width="1.5"/>
<circle cx="199" cy="15" r="15" fill="#4B73A3"/>
<path d="M200 14.0994C200 14.6592 199.552 15.1136 199 15.1136C198.448 15.1136 198 14.6592 198 14.0994C198 13.5396 198.448 13.0852 199 13.0852C199.552 13.0852 200 13.5396 200 14.0994ZM202.334 13.0852C201.782 13.0852 201.334 13.5396 201.334 14.0994C201.334 14.6592 201.782 15.1136 202.334 15.1136C202.886 15.1136 203.333 14.6592 203.333 14.0994C203.333 13.5396 202.886 13.0852 202.334 13.0852ZM195.667 13.0852C195.115 13.0852 194.667 13.5396 194.667 14.0994C194.667 14.6592 195.115 15.1136 195.667 15.1136C196.219 15.1136 196.667 14.6592 196.667 14.0994C196.667 13.5396 196.219 13.0852 195.667 13.0852ZM207 9.70453V17.8181C207 19.3097 205.804 20.5227 204.333 20.5227H202.432L199.867 22.6728C199.626 22.8905 199.318 23 199.006 23C198.688 23 198.369 22.8864 198.114 22.6572L195.615 20.5227H193.667C192.196 20.5227 191 19.3097 191 17.8181V9.70453C191.001 8.21298 192.197 7 193.667 7H204.333C205.804 7 207 8.21298 207 9.70453ZM205.667 9.70453C205.667 8.95876 205.069 8.35227 204.333 8.35227H193.667C192.932 8.35227 192.334 8.95876 192.334 9.70453V17.8181C192.334 18.5639 192.932 19.1704 193.667 19.1704H195.859C196.016 19.1704 196.168 19.2265 196.289 19.3293L198.988 21.6349L201.768 19.3252C201.888 19.2252 202.038 19.1704 202.193 19.1704H204.334C205.069 19.1704 205.667 18.5639 205.667 17.8181L205.667 9.70453Z" fill="#FAFAFA"/>
</svg>
