<svg width="20" height="10" viewBox="0 0 20 10" fill="none" xmlns="http://www.w3.org/2000/svg">
<path d="M18.5642 9.99428C18.3763 9.99534 18.19 9.96005 18.0161 9.89042C17.8422 9.8208 17.684 9.71821 17.5506 9.58854L11.0124 3.16668C10.8796 3.03554 10.7218 2.93146 10.5478 2.86043C10.3738 2.7894 10.1872 2.75283 9.99878 2.75283C9.81033 2.75283 9.62374 2.7894 9.44977 2.86043C9.27581 2.93146 9.11792 3.03554 8.98521 3.16668L2.44697 9.58854C2.17816 9.85199 1.81357 10 1.4334 10C1.05324 10 0.68865 9.85199 0.419834 9.58854C0.151019 9.32508 0 8.96776 0 8.59518C0 8.41069 0.0370765 8.22802 0.109112 8.05758C0.181147 7.88713 0.286731 7.73227 0.419834 7.60182L6.97235 1.19395C7.78598 0.427853 8.8705 0 9.99878 0C11.1271 0 12.2116 0.427853 13.0252 1.19395L19.5777 7.60182C19.7115 7.73188 19.8177 7.88662 19.8902 8.05712C19.9627 8.22761 20 8.41048 20 8.59518C20 8.77988 19.9627 8.96275 19.8902 9.13324C19.8177 9.30373 19.7115 9.45847 19.5777 9.58854C19.4443 9.71821 19.2861 9.8208 19.1122 9.89042C18.9383 9.96005 18.752 9.99534 18.5642 9.99428Z" fill="#4B73A3"/>
</svg>
