<svg width="20" height="10" viewBox="0 0 20 10" fill="none" xmlns="http://www.w3.org/2000/svg">
<path d="M1.43584 0.00572558C1.62372 0.00466126 1.80996 0.0399548 1.98389 0.10958C2.15782 0.179206 2.31602 0.281794 2.44941 0.411464L8.98765 6.83332C9.12036 6.96446 9.27825 7.06854 9.45221 7.13957C9.62617 7.2106 9.81276 7.24717 10.0012 7.24717C10.1897 7.24717 10.3763 7.2106 10.5502 7.13957C10.7242 7.06854 10.8821 6.96446 11.0148 6.83332L17.553 0.411463C17.8218 0.148008 18.1864 1.58547e-07 18.5666 1.25312e-07C18.9468 9.20773e-08 19.3113 0.148007 19.5802 0.411463C19.849 0.674918 20 1.03224 20 1.40482C20 1.58931 19.9629 1.77198 19.8909 1.94242C19.8189 2.11287 19.7133 2.26773 19.5802 2.39818L13.0277 8.80605C12.214 9.57215 11.1295 10 10.0012 10C8.87294 10 7.78841 9.57215 6.97478 8.80605L0.422273 2.39818C0.288469 2.26812 0.182264 2.11338 0.109788 1.94288C0.0373127 1.77239 -7.35268e-07 1.58952 -7.51414e-07 1.40482C-7.67561e-07 1.22013 0.0373127 1.03726 0.109788 0.866763C0.182264 0.69627 0.288468 0.541529 0.422273 0.411464C0.555663 0.281794 0.713857 0.179206 0.887788 0.10958C1.06172 0.0399549 1.24796 0.00466129 1.43584 0.00572558Z" fill="#4B73A3"/>
</svg>
