<svg width="24" height="21" viewBox="0 0 24 21" fill="none" xmlns="http://www.w3.org/2000/svg">
<path d="M22.2857 8.7577H5.14286L10.7829 2.99605C10.9435 2.83324 11.0711 2.63955 11.1581 2.42614C11.2451 2.21274 11.2899 1.98384 11.2899 1.75265C11.2899 1.52146 11.2451 1.29256 11.1581 1.07915C11.0711 0.865747 10.9435 0.672056 10.7829 0.509254C10.4617 0.18308 10.0272 0 9.57429 0C9.1214 0 8.68691 0.18308 8.36572 0.509254L1.01143 8.03968C0.367564 8.69351 0.00382764 9.58153 0 10.509C0.00834272 11.4303 0.371733 12.3112 1.01143 12.9607L8.36572 20.4911C8.52555 20.6533 8.71508 20.7817 8.92349 20.869C9.1319 20.9563 9.3551 21.0008 9.58035 21C9.80559 20.9992 10.0285 20.953 10.2363 20.8642C10.4441 20.7754 10.6327 20.6457 10.7914 20.4824C10.9501 20.3191 11.0758 20.1255 11.1613 19.9126C11.2467 19.6997 11.2903 19.4717 11.2895 19.2416C11.2887 19.0115 11.2436 18.7838 11.1566 18.5715C11.0697 18.3592 10.9427 18.1665 10.7829 18.0044L5.14286 12.2602H22.2857C22.7404 12.2602 23.1764 12.0757 23.4979 11.7473C23.8194 11.4189 24 10.9734 24 10.509C24 10.0445 23.8194 9.59905 23.4979 9.27063C23.1764 8.9422 22.7404 8.7577 22.2857 8.7577Z" fill="#4B73A3"/>
</svg>
