<svg width="23" height="23" viewBox="0 0 23 23" fill="none" xmlns="http://www.w3.org/2000/svg">
<path d="M5.27083 20.125C4.63542 20.125 4.02603 19.8726 3.57672 19.4233C3.12742 18.974 2.875 18.3646 2.875 17.7292V1.4375C2.875 1.05625 2.72355 0.690618 2.45397 0.421034C2.18438 0.15145 1.81875 0 1.4375 0C1.05625 0 0.690618 0.15145 0.421034 0.421034C0.15145 0.690618 0 1.05625 0 1.4375L0 17.7292C0 19.1271 0.555318 20.4677 1.54379 21.4562C2.53226 22.4447 3.87292 23 5.27083 23H21.5625C21.9437 23 22.3094 22.8485 22.579 22.579C22.8485 22.3094 23 21.9437 23 21.5625C23 21.1813 22.8485 20.8156 22.579 20.546C22.3094 20.2765 21.9437 20.125 21.5625 20.125H5.27083Z" fill="#4B73A3"/>
<path d="M18.7161 17.137C19.1348 17.137 19.5362 16.9865 19.8322 16.7187C20.1283 16.4509 20.2946 16.0876 20.2946 15.7089V9.99646C20.2946 9.61771 20.1283 9.25446 19.8322 8.98664C19.5362 8.71882 19.1348 8.56836 18.7161 8.56836C18.2975 8.56836 17.896 8.71882 17.6 8.98664C17.304 9.25446 17.1377 9.61771 17.1377 9.99646V15.7089C17.1377 16.0876 17.304 16.4509 17.6 16.7187C17.896 16.9865 18.2975 17.137 18.7161 17.137Z" fill="#4B73A3"/>
<path d="M7.21525 17.137C7.57407 17.137 7.91819 16.9865 8.17192 16.7187C8.42565 16.4509 8.56819 16.0876 8.56819 15.7089V9.99646C8.56819 9.61771 8.42565 9.25446 8.17192 8.98664C7.91819 8.71882 7.57407 8.56836 7.21525 8.56836C6.85642 8.56836 6.5123 8.71882 6.25857 8.98664C6.00485 9.25446 5.8623 9.61771 5.8623 9.99646V15.7089C5.8623 16.0876 6.00485 16.4509 6.25857 16.7187C6.5123 16.9865 6.85642 17.137 7.21525 17.137Z" fill="#4B73A3"/>
<path d="M13.0785 17.1368C13.4373 17.1368 13.7815 16.9841 14.0352 16.7123C14.2889 16.4404 14.4315 16.0717 14.4315 15.6873V5.057C14.4315 4.67255 14.2889 4.30384 14.0352 4.03199C13.7815 3.76014 13.4373 3.60742 13.0785 3.60742C12.7197 3.60742 12.3756 3.76014 12.1219 4.03199C11.8681 4.30384 11.7256 4.67255 11.7256 5.057V15.6873C11.7256 16.0717 11.8681 16.4404 12.1219 16.7123C12.3756 16.9841 12.7197 17.1368 13.0785 17.1368Z" fill="#4B73A3"/>
</svg>
