<svg width="30" height="30" viewBox="0 0 30 30" fill="none" xmlns="http://www.w3.org/2000/svg">
<path d="M17.5 15.0028V20.0019H12.5V15.0028H17.5ZM30 12.1583V23.7512C30 27.1968 27.1962 30 23.75 30H6.25C2.80375 30 0 27.1968 0 23.7512V12.1583C0 10.0775 1.03 8.1416 2.755 6.97807L11.5038 1.07417C13.6275 -0.358058 16.3725 -0.358058 18.4962 1.07417L25 5.4621V2.50516C25 1.81403 25.56 1.25539 26.25 1.25539C26.94 1.25539 27.5 1.81403 27.5 2.50516V7.17303C29.0663 8.35031 30 10.185 30 12.1571V12.1583ZM20 15.0028C20 13.6243 18.8788 12.5033 17.5 12.5033H12.5C11.1212 12.5033 10 13.6243 10 15.0028V20.0019C10 21.3804 11.1212 22.5014 12.5 22.5014H17.5C18.8788 22.5014 20 21.3804 20 20.0019V15.0028Z" fill="#4B73A3"/>
</svg>
