<svg width="100" height="127" viewBox="0 0 100 127" fill="none" xmlns="http://www.w3.org/2000/svg">
<path d="M50.0012 11.3872C28.7278 11.3872 11.4199 28.6452 11.4199 49.8611C11.4199 71.0769 28.7278 88.335 50.0012 88.335C71.2746 88.335 88.5858 71.0736 88.5858 49.8611C88.5858 28.6486 71.2754 11.3872 50.0012 11.3872Z" fill="white"/>
<path d="M49.9999 18.6973C32.7689 18.6973 18.7495 32.6759 18.7495 49.8607C18.7495 67.0455 32.768 81.0241 49.9999 81.0241C67.2318 81.0241 81.2554 67.043 81.2554 49.8607C81.2554 32.6784 67.231 18.6973 49.9999 18.6973Z" fill="#ED6D34"/>
<path d="M38.5849 47.9663H62.3112V53.2692H43.7785L42.7951 58.8154C44.8024 57.5915 48.6472 57.1041 50.895 57.1041C56.9521 57.1041 64.2314 59.3061 64.2314 66.6485C64.2314 73.911 57.2779 77.0119 49.4634 77.0119C43.4113 77.0119 34.9832 75.2973 34.6582 67.8312H42.8374C43.5742 70.8505 45.9883 71.7065 49.3824 71.7065C54.0881 71.7065 56.2962 70.1173 56.2962 66.8531C56.2962 62.7732 51.7162 61.918 49.303 61.918C47.338 61.918 44.8446 62.4491 43.37 63.875H35.8433L38.584 47.968L38.5849 47.9663Z" fill="white"/>
<path d="M30.4443 29.0273H33.3902V34.5962H36.8264V29.0273H39.7731V43.591H36.8264V37.1248H33.3902V43.591H30.4443V29.0273Z" fill="white"/>
<path d="M50.3641 29.0273V31.433H47.1726V43.591H44.2268V31.433H41.0361V29.0273H50.3641Z" fill="white"/>
<path d="M51.6875 29.0273H56.0657L58.1506 39.3066H58.1903L60.2988 29.0273H64.6534V43.591H61.9549V31.965H61.9127L59.3155 43.591H57.0263L54.4291 31.965H54.3869V43.591H51.6875V29.0273Z" fill="white"/>
<path d="M66.7578 43.591V29.0273H69.7037V41.1845H74.9175V43.591H66.7578Z" fill="white"/>
<path d="M9.87793 126.585V105.525H14.138V123.103H21.6824V126.585H9.87793Z" fill="#036EB8"/>
<path d="M26.955 119.272V120.541C26.955 122.399 27.4581 124.227 28.9656 124.227C30.3246 124.227 30.8868 123.195 31.1256 121.248H34.7923C34.6455 124.934 32.8695 127 29.0247 127C23.1085 127 22.873 122.456 22.873 118.504C22.873 114.256 23.7019 110.304 29.2028 110.304C33.9634 110.304 35.0278 113.49 35.0278 118.356V119.27H26.9542L26.955 119.272ZM31.1256 116.855C31.0362 114.436 30.7424 113.08 29.0559 113.08C27.4269 113.08 26.955 114.761 26.955 116.235V116.855H31.1256Z" fill="#036EB8"/>
<path d="M44.7137 110.718H48.7956L44.8014 126.587H40.0687L35.958 110.718H40.2156L42.4954 122.074H42.5545L44.7137 110.718Z" fill="#036EB8"/>
<path d="M53.8032 119.272V120.541C53.8032 122.399 54.3062 124.227 55.8138 124.227C57.1727 124.227 57.7349 123.195 57.9738 121.248H61.6405C61.4936 124.934 59.7177 127 55.8729 127C49.9567 127 49.7212 122.456 49.7212 118.504C49.7212 114.256 50.5501 110.304 56.051 110.304C60.8116 110.304 61.8777 113.49 61.8777 118.356V119.27H53.8032V119.272ZM57.9738 116.855C57.8843 114.436 57.5906 113.08 55.9041 113.08C54.275 113.08 53.8032 114.761 53.8032 116.235V116.855H57.9738Z" fill="#036EB8"/>
<path d="M68.2441 105.525H64.1621V126.585H68.2441V105.525Z" fill="#036EB8"/>
<path d="M75.2624 121.984H71.3594V126.585H75.2624V121.984Z" fill="#036EB8"/>
<path d="M82.7849 126.587V110.36H78.1973V107.31H78.6201C81.6791 107.31 83.5665 106.142 84.0231 103.61H87.4712V126.586H82.7857L82.7849 126.587Z" fill="#036EB8"/>
<path d="M50 99.7174C22.4315 99.7174 0 77.3501 0 49.86C0 22.3699 22.4315 0 50 0C77.5685 0 100 22.3648 100 49.86C100 77.3551 77.5711 99.7174 50 99.7174ZM50 11.3853C28.7266 11.3853 11.4187 28.6433 11.4187 49.8591C11.4187 71.075 28.7266 88.333 50 88.333C71.2734 88.333 88.5846 71.0716 88.5846 49.8591C88.5846 28.6467 71.2742 11.3861 50 11.3861" fill="#036EB8"/>
</svg>
