<svg width="126" height="55" viewBox="0 0 126 55" fill="none" xmlns="http://www.w3.org/2000/svg">
<mask id="mask0_640_1957" style="mask-type:luminance" maskUnits="userSpaceOnUse" x="0" y="0" width="126" height="55">
<path d="M126 0H0V55H126V0Z" fill="white"/>
</mask>
<g mask="url(#mask0_640_1957)">
<path d="M13.7872 17.4848C13.7872 17.4848 13.6383 14.0733 9.22209 11.4033C9.22209 11.4033 7.08823 13.727 7.63434 18.3748" fill="#FBFBFB"/>
<path d="M13.7872 17.4848C13.7872 17.4848 13.6383 14.0733 9.22209 11.4033C9.22209 11.4033 7.08823 13.727 7.63434 18.3748" stroke="#162142" stroke-linecap="round" stroke-linejoin="round"/>
<path d="M11.355 13.1338L8.12988 13.727C8.12988 13.727 8.42776 12.1944 9.22164 11.4033C9.22164 11.4033 10.66 12.1944 11.355 13.1338Z" fill="#162142"/>
<path d="M15.225 24.4564L13.7857 17.4849L7.63281 18.3749L9.61774 28.61L15.225 24.4564Z" fill="#94C745" stroke="#162142" stroke-linecap="round" stroke-linejoin="round"/>
<path d="M11.7383 17.875L13.3757 25.9344" stroke="#162142" stroke-linecap="round" stroke-linejoin="round"/>
<path d="M9.81738 18.127L11.1569 27.4226" stroke="#162142" stroke-linecap="round" stroke-linejoin="round"/>
<path d="M28.849 21.7178C28.849 21.7178 23.4798 24.8834 25.2248 29.5645L31.5336 25.1506L28.849 21.7178Z" fill="#F5CA36"/>
<path d="M94.5323 21.064C94.5323 21.064 102.344 29.2033 98.3086 32.8012L91.8662 24.8999L94.5323 21.064Z" fill="#F5CA36"/>
<path d="M105.788 55.2102C105.788 55.2102 105.163 31.3016 87.7251 20.5062L69.2034 13.8416C69.2034 13.8416 58.2278 12.6456 53.2544 13.8416L33.3606 21.7022C33.3606 21.7022 13.1239 34.1769 15.1822 55.1959H104.532L105.788 55.2102Z" fill="#F08235"/>
<path d="M87.2654 55.2136C87.2654 55.2136 95.9845 42.3062 82.0998 28.9712L68.2151 24.7205C68.2151 24.7205 64.7858 28.8879 54.9994 23.2202L36.2633 27.2208C36.2633 27.2208 25.8594 42.3409 32.9518 55.2155L87.2654 55.2136Z" fill="white"/>
<path d="M58.7573 15.6529C58.7573 15.6529 61.2985 14.9534 63.405 15.9197L63.7061 19.285C63.7061 19.285 59.9613 18.5522 58.5234 19.3183L58.7573 15.6534V15.6529Z" fill="#F5CA36"/>
<path d="M54.4196 41.8608C54.7972 39.4218 54.198 37.3054 53.0811 37.1337C51.9643 36.9621 50.7528 38.8001 50.3751 41.2391C49.9975 43.6781 50.5968 45.7945 51.7137 45.9661C52.8305 46.1378 54.042 44.2998 54.4196 41.8608Z" fill="#6C6866"/>
<path d="M71.9665 43.0805C72.3441 40.6415 71.7448 38.5252 70.628 38.3535C69.5111 38.1818 68.2996 40.0198 67.922 42.4588C67.5444 44.8978 68.1437 47.0142 69.2605 47.1859C70.3774 47.3576 71.5889 45.5195 71.9665 43.0805Z" fill="#6C6866"/>
<path d="M91.5671 20.9757C92.3696 16.8594 87.442 12.4427 80.5608 11.1107C73.6797 9.77865 67.4509 12.0357 66.6484 16.1519C65.8459 20.2681 70.7736 24.6848 77.6547 26.0169C84.5358 27.3489 90.7646 25.0919 91.5671 20.9757Z" fill="white"/>
<path d="M43.9197 25.2847C50.8997 24.642 56.2442 20.7361 55.8569 16.5607C55.4697 12.3853 49.4974 9.52154 42.5173 10.1643C35.5373 10.8071 30.1928 14.7129 30.5801 18.8883C30.9673 23.0637 36.9397 25.9275 43.9197 25.2847Z" fill="#EDF7FD"/>
<path d="M81.0868 8.11363C72.2809 6.40901 64.2243 9.73873 63.0912 15.5502C61.9582 21.3618 68.1783 27.4553 76.9838 29.1599C85.7898 30.8645 93.8464 27.5348 94.9795 21.7233C96.1125 15.9118 89.8923 9.81825 81.0868 8.11363ZM91.5664 20.9757C90.7637 25.0919 84.5352 27.349 77.6538 26.017C70.7725 24.685 65.845 20.2683 66.6472 16.1522C67.4499 12.0361 73.6784 9.77895 80.5598 11.1109C87.4411 12.4429 92.3686 16.8596 91.5664 20.9757Z" fill="#F5CA36"/>
<path d="M59.3433 16.325C58.7967 10.4298 51.1122 6.31738 42.18 7.13987C33.2479 7.96236 26.45 13.4082 26.9966 19.3034C27.5432 25.1986 35.2277 29.311 44.1598 28.4885C53.092 27.666 59.8898 22.2202 59.3433 16.325ZM43.919 25.285C36.9389 25.9277 30.9664 23.064 30.579 18.8887C30.1916 14.7133 35.5362 10.8071 42.5164 10.1644C49.4966 9.52181 55.469 12.3855 55.8564 16.5608C56.2438 20.7361 50.8992 24.6419 43.919 25.285Z" fill="#F5CA36"/>
<path d="M20.8956 36.0397C20.8956 36.0397 19.1965 36.362 19.3584 31.9287C20.1356 23.6612 17.541 20.8174 12.7243 23.7061C11.7537 24.1092 -1.70928 37.6292 6.32089 54.7753L15.1825 55.1969L23.1733 46.8759L20.8956 36.0397Z" fill="#F08235"/>
<path d="M86.4925 25.6738C86.9041 25.5402 87.2961 25.389 87.6687 25.2217L79.2952 10.9051C78.7806 10.8371 78.2726 10.7914 77.7715 10.7627L86.4925 25.6738Z" fill="#EDF7FD"/>
<path d="M83.8379 12.0273L90.4139 23.2708C90.9999 22.5949 91.4004 21.8256 91.566 20.9758C92.2337 17.5499 88.9306 13.9178 83.8379 12.0273Z" fill="#EDF7FD"/>
<path d="M76.4985 10.7309C71.3784 10.7721 67.287 12.8697 66.6472 16.1518C65.8445 20.2679 70.7725 24.6846 77.6538 26.0166C80.4563 26.5589 83.1506 26.5062 85.4144 25.9745L76.4985 10.7305V10.7309Z" fill="#EDF7FD"/>
<path d="M103.123 34.224L99.9023 22.5751L108.372 20.5542L111.235 33.0353L103.481 35.4126L103.123 34.224Z" fill="white" stroke="#162142" stroke-width="1.5" stroke-miterlimit="10"/>
<path d="M106.94 29.2309L112.07 35.0554L119.347 24.5951L111.712 20.4346L106.94 29.2309Z" fill="white" stroke="#162142" stroke-width="1.5" stroke-miterlimit="10"/>
<path d="M114.456 28.9937L120.063 27.9238L122.687 36.6009L111.474 39.2163L108.85 29.7066L114.456 28.9937Z" fill="white" stroke="#162142" stroke-width="1.5" stroke-miterlimit="10"/>
<path d="M100.468 36.4225C100.468 36.4225 105.001 25.8434 110.727 29.647C112.397 31.0733 117.646 34.164 106.552 57.1054L95.6963 49.2601L100.468 36.4225Z" fill="#F08235"/>
</g>
</svg>
