<svg width="120" height="76" viewBox="0 0 120 76" fill="none" xmlns="http://www.w3.org/2000/svg">
<mask id="mask0_640_1891" style="mask-type:luminance" maskUnits="userSpaceOnUse" x="0" y="0" width="120" height="76">
<path d="M120 0H0V76H120V0Z" fill="white"/>
</mask>
<g mask="url(#mask0_640_1891)">
<path d="M40.9123 43.6289C40.9123 43.6289 35.6383 46.7345 37.3524 51.3269L43.5493 46.9967L40.9123 43.6289Z" fill="#F5CA36"/>
<path d="M105.431 42.9873C105.431 42.9873 113.105 50.9724 109.141 54.5021L102.812 46.7506L105.431 42.9873Z" fill="#F5CA36"/>
<path d="M116.488 76.487C116.488 76.487 115.875 53.0315 98.7463 42.4406L80.5531 35.9024C80.5531 35.9024 69.7722 34.729 64.887 35.9024L45.3461 43.614C45.3461 43.614 25.4684 55.8523 27.4901 76.473H115.255L116.488 76.487Z" fill="#F08235"/>
<path d="M98.2932 76.4897C98.2932 76.4897 106.858 63.8269 93.2193 50.7445L79.5808 46.5744C79.5808 46.5744 76.2124 50.6629 66.5996 45.1025L48.1958 49.0273C48.1958 49.0273 37.9764 63.8609 44.9431 76.4915L98.2936 76.4897H98.2932Z" fill="white"/>
<path d="M70.2893 37.6795C70.2893 37.6795 72.7854 36.9933 74.8546 37.9412L75.1503 41.2428C75.1503 41.2428 71.472 40.5239 70.0596 41.2755L70.2893 37.6795Z" fill="#F5CA36"/>
<path d="M29.3718 48.6364L23.9711 27.7988L20.3984 29.453L25.965 49.3807L29.3718 48.6364Z" fill="#162142"/>
<path d="M16.9618 31.643C24.3005 31.643 30.2497 25.7223 30.2497 18.4187C30.2497 11.1151 24.3005 5.19434 16.9618 5.19434C9.62305 5.19434 3.67383 11.1151 3.67383 18.4187C3.67383 25.7223 9.62305 31.643 16.9618 31.643Z" fill="white" stroke="#162142" stroke-width="1.5" stroke-miterlimit="10"/>
<path d="M15.7806 15.6093L17.6465 11.1788C17.6465 11.1788 18.4345 9.73193 20.2342 10.5416C22.034 11.3512 22.6497 11.7267 21.9921 13.2875L20.2744 17.3655L24.8273 19.2646C24.8273 19.2646 26.2064 19.6624 25.0156 22.0659C23.8247 24.4694 22.4214 23.7065 22.1179 23.5799L18.3743 22.0183L16.3175 26.9019C16.3175 26.9019 15.7957 28.0181 14.2675 27.3459L12.3415 26.5427C12.3415 26.5427 10.9852 26.2891 11.7554 24.4608L13.6431 19.9786L8.99125 18.0382C8.99125 18.0382 7.86554 17.5687 8.29987 16.5364L9.169 14.4722C9.169 14.4722 9.79201 13.2412 10.765 13.5778C10.765 13.5778 15.715 15.7635 15.7802 15.6089L15.7806 15.6093Z" fill="#3F71B7"/>
<path d="M66.0281 63.3912C66.3991 60.9984 65.8104 58.9221 64.7134 58.7537C63.6163 58.5853 62.4263 60.3885 62.0554 62.7813C61.6845 65.174 62.2731 67.2503 63.3702 67.4187C64.4672 67.5872 65.6572 65.784 66.0281 63.3912Z" fill="#6C6866"/>
<path d="M83.2655 64.587C83.6364 62.1942 83.0477 60.1179 81.9507 59.9495C80.8536 59.7811 79.6636 61.5843 79.2927 63.9771C78.9218 66.3698 79.5104 68.4461 80.6075 68.6145C81.7045 68.783 82.8945 66.9798 83.2655 64.587Z" fill="#6C6866"/>
<path d="M102.518 42.902C103.307 38.8637 98.4663 34.5307 91.7072 33.2239C84.9482 31.9171 78.8299 34.1314 78.0416 38.1696C77.2533 42.2078 82.0935 46.5408 88.8526 47.8476C95.6116 49.1544 101.73 46.9402 102.518 42.902Z" fill="white"/>
<path d="M55.7175 47.1286C62.5737 46.4981 67.8234 42.6662 67.443 38.5699C67.0626 34.4737 61.1962 31.6642 54.34 32.2948C47.4838 32.9253 42.2341 36.7572 42.6145 40.8535C42.9949 44.9497 48.8613 47.7592 55.7175 47.1286Z" fill="#EDF7FD"/>
<path d="M92.2242 30.2819C83.5745 28.6096 75.6608 31.8762 74.5478 37.5776C73.4349 43.279 79.5447 49.2571 88.194 50.9294C96.8438 52.6017 104.757 49.3351 105.87 43.6337C106.983 37.9323 100.874 31.9542 92.2242 30.2819ZM102.518 42.9003C101.729 46.9384 95.6114 49.1528 88.8521 47.846C82.0928 46.5393 77.2527 42.2063 78.0407 38.1682C78.8292 34.13 84.9472 31.9157 91.7065 33.2224C98.4658 34.5292 103.306 38.8621 102.518 42.9003Z" fill="#F5CA36"/>
<path d="M70.8676 38.3384C70.3307 32.555 62.7825 28.5204 54.0088 29.3273C45.2351 30.1342 38.5578 35.4769 39.0947 41.2604C39.6316 47.0438 47.1798 51.0784 55.9535 50.2715C64.7272 49.4646 71.4044 44.1219 70.8676 38.3384ZM55.7169 47.1287C48.8606 47.7591 42.9941 44.9497 42.6136 40.8535C42.233 36.7573 47.4828 32.9251 54.3392 32.2946C61.1956 31.6641 67.062 34.4736 67.4426 38.5698C67.8231 42.666 62.5733 46.4977 55.7169 47.1287Z" fill="#F5CA36"/>
<path d="M24.7188 46.6516L34.4395 27.3027L37.4306 29.039L28.8729 46.9823L24.7188 46.6516Z" fill="#162142"/>
<path d="M40.3009 30.7268C47.8722 30.7268 54.01 24.6184 54.01 17.0834C54.01 9.54832 47.8722 3.43994 40.3009 3.43994C32.7296 3.43994 26.5918 9.54832 26.5918 17.0834C26.5918 24.6184 32.7296 30.7268 40.3009 30.7268Z" fill="white" stroke="#162142" stroke-width="1.5" stroke-miterlimit="10"/>
<path d="M40.3728 8.22656C35.5081 8.22656 31.5645 12.1513 31.5645 16.9927C31.5645 21.8342 35.5081 25.7589 40.3728 25.7589C45.2375 25.7589 49.1812 21.8342 49.1812 16.9927C49.1812 12.1513 45.2375 8.22656 40.3728 8.22656ZM40.3728 22.6783C37.2176 22.6783 34.6599 20.1328 34.6599 16.9927C34.6599 13.8527 37.2176 11.3072 40.3728 11.3072C43.528 11.3072 46.0857 13.8527 46.0857 16.9927C46.0857 20.1328 43.528 22.6783 40.3728 22.6783Z" fill="#E13937"/>
<path d="M33.1007 57.6788C33.1007 57.6788 31.4317 57.9949 31.5908 53.6456C32.3542 45.5349 29.8056 42.7449 25.0744 45.5789C24.121 45.9744 10.8968 59.2382 18.7846 76.0593L27.489 76.473L35.338 68.3096L33.1002 57.6788H33.1007Z" fill="#F08235"/>
<path d="M97.5351 47.5109C97.9394 47.3798 98.3245 47.2315 98.6904 47.0673L90.4654 33.022C89.96 32.9553 89.461 32.9104 88.9688 32.8823L97.5351 47.5109Z" fill="#EDF7FD"/>
<path d="M94.9277 34.1216L101.387 45.152C101.963 44.4889 102.356 43.7341 102.519 42.9005C103.175 39.5395 99.9301 35.9762 94.9277 34.1216Z" fill="#EDF7FD"/>
<path d="M87.7177 32.8506C82.6885 32.8909 78.6697 34.9488 78.0412 38.1687C77.2527 42.2068 82.0933 46.5398 88.8526 47.8465C91.6053 48.3786 94.2519 48.3269 96.4755 47.8053L87.7177 32.8506Z" fill="#EDF7FD"/>
</g>
</svg>
