<svg width="66" height="80" viewBox="0 0 66 80" fill="none" xmlns="http://www.w3.org/2000/svg">
<ellipse cx="23.0746" cy="74.2965" rx="13" ry="2" transform="rotate(15 23.0746 74.2965)" fill="#253F72"/>
<path d="M52.877 30.3844C51.4994 25.2982 52.0503 21.4166 51.9335 16.3734C51.8167 11.3302 49.7217 10.964 49.7217 10.964C46.4815 9.16107 39.219 21.9358 39.219 21.9358C38.2154 20.972 35.2474 20.9069 35.0619 20.9038C35.058 20.9038 35.0572 20.8991 35.0599 20.8965C37.9896 18.0277 35.3589 14.6764 35.3589 14.6764C35.5816 14.48 37.8788 11.9364 36.0627 7.6075C34.2463 3.27856 28.6624 3.48998 27.3017 3.80847C25.9408 4.1269 20.7815 6.24508 20.2789 10.9772C19.7762 15.7093 22.6936 17.5155 25.7632 17.4842C28.8329 17.4529 28.5372 19.5083 28.5372 19.5083C28.5372 19.5083 17.1595 24.1462 8.23161 39.4068C-0.696301 54.6674 3.42443 59.2276 5.19038 60.7259C5.19038 60.7259 10.0109 64.3774 14.1421 59.4731C14.1421 59.4731 14.8556 60.6646 16.96 60.9751C16.96 60.9751 19.0975 68.5769 22.8414 68.853C24.6857 68.7209 24.1877 64.756 23.9918 64.0226C23.981 63.9821 23.971 63.9514 23.9624 63.9318C23.9624 63.9318 25.0246 64.3174 25.722 64.5043C26.4195 64.6912 27.9374 64.9969 27.9374 64.9969C27.6091 65.2394 24.8319 68.7255 26.4477 69.8194C29.8283 71.4522 35.48 65.9375 35.48 65.9375C37.4578 66.7209 38.6714 66.0457 38.6714 66.0457C39.7972 72.3586 45.7974 71.6066 45.7974 71.6066C57.5338 66.6211 52.877 30.3844 52.877 30.3844ZM30.4104 11.7044C29.7437 11.0124 28.6083 10.1605 27.7145 11.4613C26.8204 12.7621 27.6806 13.369 27.6806 13.369C27.6806 13.369 28.0942 14.3698 26.1295 13.4326C25.032 12.6936 25.6288 10.5943 26.447 9.95793C27.2187 9.24058 28.1348 8.49343 29.4545 8.40215C29.4545 8.40215 32.2313 8.59844 32.0788 11.3302C31.9579 12.2904 31.0771 12.3965 30.4104 11.7044ZM48.4846 13.8866C49.8807 14.02 48.9191 17.0467 48.9191 17.0467L46.2599 16.3393C46.2599 16.3393 47.0885 13.7531 48.4846 13.8866ZM46.7619 22.0509L44.2209 21.37C44.2209 21.37 43.202 20.9539 43.855 19.656C43.855 19.656 44.2567 18.8676 45.6527 18.8947L48.4887 19.6546C48.4887 19.6546 49.3138 19.9651 49.4509 20.9483C49.5834 21.899 49.1358 22.8941 46.7621 22.051L46.7619 22.0509Z" fill="#E67D37"/>
<path d="M42.8073 16.3835C42.76 16.4522 42.3338 17.0599 42.3338 17.0599L51.9448 19.041C51.9475 18.8865 51.9496 18.1145 51.9512 17.9514C51.9507 17.4559 51.9463 16.9513 51.9348 16.4343C51.9086 15.6982 51.8499 14.9437 51.7308 14.2366C51.3327 12.0573 50.4617 11.3187 50.0086 11.0774C49.9169 11.0335 49.8224 10.9941 49.7221 10.9644C47.9914 10.0015 45.1135 13.197 42.8075 16.3838L42.8073 16.3835ZM48.9193 17.0469L46.2601 16.3395C46.2601 16.3395 47.0887 13.7533 48.4848 13.8868C49.8809 14.0202 48.9193 17.0469 48.9193 17.0469Z" fill="#ECC33E"/>
<path d="M42.4906 26.7954C44.341 27.1726 46.872 28.3046 48.2383 31.5813C49.1174 33.6891 49.2101 36.0347 48.673 38.2579C47.8529 41.6528 45.6314 44.8128 40.8788 45.1456C37.4023 45.3597 35.7803 43.7565 35.2525 43.299C34.7247 42.8416 32.9845 41.3009 29.8387 42.0114C25.7016 42.9458 22.5562 38.537 21.8499 36.058C21.1187 33.4917 21.9345 24.8208 29.4434 23.7629C34.2081 23.4474 35.6284 25.4736 36.4873 26.2074C37.2175 26.8312 38.1719 27.0553 39.4995 26.8106C40.4897 26.628 41.5044 26.5944 42.4904 26.7952L42.4906 26.7954Z" fill="white"/>
<path d="M29.4543 8.401C29.4543 8.401 30.0262 8.44244 30.6364 8.74172L36.0712 7.58144C34.2548 3.25251 28.6709 3.46393 27.3102 3.78241C25.9493 4.10084 20.79 6.21903 20.2874 10.9511L26.9222 9.53461C27.5956 8.97057 28.3947 8.47417 29.4546 8.40086L29.4543 8.401Z" fill="#ECC33E"/>
<path d="M38.7305 37.6398C39.204 37.7666 39.8287 36.9702 40.1259 35.8609C40.4232 34.7517 40.2803 33.7496 39.8069 33.6228C39.3335 33.4959 38.7088 34.2923 38.4115 35.4016C38.1143 36.5108 38.2571 37.5129 38.7305 37.6398Z" fill="#231815"/>
<path d="M31.1993 35.622C31.6727 35.7488 32.2975 34.9524 32.5947 33.8431C32.8919 32.7339 32.7491 31.7318 32.2757 31.6049C31.8022 31.4781 31.1775 32.2745 30.8803 33.3838C30.583 34.493 30.7259 35.4951 31.1993 35.622Z" fill="#231815"/>
<path d="M45.7999 55.8173C45.7999 55.8173 44.1769 65.3899 38.671 66.0454" stroke="#CD5718" stroke-width="2" stroke-linecap="round" stroke-linejoin="round"/>
<path d="M13.8698 44.9603C13.8698 44.9603 8.63489 55.8666 14.1425 59.4731" stroke="#CD5718" stroke-width="2" stroke-linecap="round" stroke-linejoin="round"/>
<g opacity="0.35">
<path d="M48.5505 38.7168C48.5939 38.5632 48.6351 38.4093 48.6725 38.2545C49.2096 36.0312 49.1169 33.6856 48.2379 31.5778C46.8715 28.3011 44.3405 27.1691 42.4901 26.792C41.6911 26.6291 40.8731 26.6223 40.0647 26.7221L48.5507 38.7169L48.5505 38.7168Z" fill="#E8F5FA"/>
<path d="M38.0958 26.8822C37.4559 26.813 36.9306 26.5828 36.4884 26.205C35.6295 25.471 34.2092 23.445 29.4445 23.7605C21.9355 24.8184 21.1195 33.4895 21.851 36.0556C22.5575 38.5346 25.7027 42.9433 29.8397 42.009C32.9855 41.2986 34.7257 42.8394 35.2535 43.2966C35.7814 43.7539 37.4034 45.3572 40.8799 45.1432C44.1167 44.9165 46.1786 43.378 47.4242 41.3475L38.0958 26.8822Z" fill="url(#paint0_linear_259_731)"/>
</g>
<mask id="mask0_259_731" style="mask-type:luminance" maskUnits="userSpaceOnUse" x="2" y="3" width="52" height="69">
<path d="M52.877 30.3841C51.4994 25.298 52.0503 21.4164 51.9335 16.3732C51.8167 11.33 49.7217 10.9638 49.7217 10.9638C46.4815 9.16083 39.219 21.9355 39.219 21.9355C38.2154 20.9717 35.2474 20.9067 35.0619 20.9035C35.058 20.9035 35.0572 20.8988 35.0599 20.8963C37.9896 18.0275 35.3589 14.6762 35.3589 14.6762C35.5816 14.4798 37.8788 11.9361 36.0627 7.60725C34.2463 3.27832 28.6624 3.48974 27.3017 3.80822C25.9408 4.12665 20.7815 6.24484 20.2789 10.9769C19.7762 15.709 22.6936 17.5153 25.7632 17.484C28.8329 17.4527 28.5372 19.5081 28.5372 19.5081C28.5372 19.5081 17.1595 24.146 8.23161 39.4065C-0.696301 54.6671 3.42443 59.2274 5.19038 60.7257C5.19038 60.7257 10.0109 64.3771 14.1421 59.4729C14.1421 59.4729 14.8556 60.6644 16.96 60.9749C16.96 60.9749 19.0975 68.5766 22.8414 68.8528C24.6857 68.7206 24.1877 64.7557 23.9918 64.0223C23.981 63.9818 23.971 63.9511 23.9624 63.9316C23.9624 63.9316 25.0246 64.3172 25.722 64.5041C26.4195 64.6909 27.9374 64.9967 27.9374 64.9967C27.6091 65.2392 24.8319 68.7252 26.4477 69.8191C29.8283 71.4519 35.48 65.9373 35.48 65.9373C37.4578 66.7206 38.6714 66.0455 38.6714 66.0455C39.7972 72.3584 45.7974 71.6063 45.7974 71.6063C57.5338 66.6209 52.877 30.3841 52.877 30.3841ZM48.4846 13.8863C49.8807 14.0198 48.9191 17.0465 48.9191 17.0465L46.2599 16.339C46.2599 16.339 47.0885 13.7529 48.4846 13.8863ZM46.7619 22.0507L44.2209 21.3698C44.2209 21.3698 43.202 20.9537 43.855 19.6558C43.855 19.6558 44.2567 18.8673 45.6527 18.8945L48.4887 19.6544C48.4887 19.6544 49.3138 19.9649 49.4509 20.9481C49.5834 21.8988 49.1358 22.8938 46.7621 22.0507L46.7619 22.0507Z" fill="white"/>
</mask>
<g mask="url(#mask0_259_731)">
<path d="M52.071 48.5589C53.9216 49.0547 56.1762 46.6416 57.1067 43.1689C58.0371 39.6963 57.2913 36.4792 55.4407 35.9833C53.5901 35.4874 51.3355 37.9006 50.405 41.3732C49.4745 44.8459 50.2204 48.063 52.071 48.5589Z" fill="#EB9565"/>
<path d="M51.51 60.499C54.6348 61.3363 58.048 58.7307 59.1336 54.6793C60.2192 50.6278 58.5661 46.6646 55.4412 45.8273C52.3164 44.99 48.9032 47.5957 47.8176 51.6471C46.732 55.6986 48.3851 59.6617 51.51 60.499Z" fill="#E79F7A"/>
<path d="M11.7686 41.8856C13.823 42.4361 16.3473 39.6772 17.4067 35.7234C18.4661 31.7697 17.6595 28.1182 15.6051 27.5678C13.5507 27.0173 11.0264 29.7762 9.96702 33.73C8.90762 37.6837 9.71422 41.3351 11.7686 41.8856Z" fill="#E79F7A"/>
<path d="M6.98717 47.1228C8.95301 47.4078 10.9336 44.9877 11.4109 41.7175C11.8882 38.4472 10.6816 35.565 8.71572 35.28C6.74988 34.995 4.7693 37.415 4.29198 40.6853C3.81465 43.9556 5.02133 46.8377 6.98717 47.1228Z" fill="#EB9565"/>
<path d="M21.2777 54.522C22.9545 54.5536 24.3563 52.5331 24.4088 50.009C24.4613 47.4849 23.1446 45.413 21.4678 45.3813C19.791 45.3497 18.3891 47.3702 18.3366 49.8943C18.2841 52.4184 19.6009 54.4903 21.2777 54.522Z" fill="#D66D33"/>
</g>
<defs>
<linearGradient id="paint0_linear_259_731" x1="23.7085" y1="25.3093" x2="48.6371" y2="52.2967" gradientUnits="userSpaceOnUse">
<stop stop-color="white"/>
<stop offset="1" stop-color="#E0F1F8"/>
</linearGradient>
</defs>
</svg>
