<svg width="50" height="70" viewBox="0 0 50 70" fill="none" xmlns="http://www.w3.org/2000/svg">
<path d="M25 50V70" stroke="#FAFAFA" stroke-width="2"/>
<circle cx="25" cy="25" r="24" stroke="#FAFAFA" stroke-width="2"/>
<path d="M24.688 32.252C24.064 32.252 23.458 32.12 22.87 31.856C22.294 31.592 21.784 31.19 21.34 30.65C20.896 30.098 20.542 29.402 20.278 28.562C20.026 27.71 19.9 26.696 19.9 25.52C19.9 24.284 20.038 23.216 20.314 22.316C20.602 21.416 20.986 20.684 21.466 20.12C21.946 19.544 22.492 19.118 23.104 18.842C23.728 18.566 24.382 18.428 25.066 18.428C25.882 18.428 26.584 18.578 27.172 18.878C27.772 19.166 28.27 19.52 28.666 19.94L27.262 21.524C27.034 21.26 26.734 21.032 26.362 20.84C25.99 20.648 25.612 20.552 25.228 20.552C24.688 20.552 24.196 20.708 23.752 21.02C23.32 21.332 22.972 21.848 22.708 22.568C22.444 23.288 22.312 24.272 22.312 25.52C22.312 26.672 22.414 27.596 22.618 28.292C22.834 28.976 23.116 29.474 23.464 29.786C23.812 30.098 24.202 30.254 24.634 30.254C24.97 30.254 25.27 30.164 25.534 29.984C25.81 29.792 26.032 29.516 26.2 29.156C26.368 28.784 26.452 28.328 26.452 27.788C26.452 27.26 26.368 26.828 26.2 26.492C26.044 26.156 25.822 25.904 25.534 25.736C25.258 25.568 24.928 25.484 24.544 25.484C24.184 25.484 23.806 25.598 23.41 25.826C23.014 26.042 22.648 26.426 22.312 26.978L22.186 25.196C22.426 24.86 22.708 24.572 23.032 24.332C23.368 24.092 23.71 23.912 24.058 23.792C24.418 23.672 24.742 23.612 25.03 23.612C25.774 23.612 26.434 23.762 27.01 24.062C27.598 24.362 28.054 24.818 28.378 25.43C28.702 26.042 28.864 26.828 28.864 27.788C28.864 28.7 28.672 29.492 28.288 30.164C27.916 30.824 27.412 31.34 26.776 31.712C26.14 32.072 25.444 32.252 24.688 32.252Z" fill="white"/>
</svg>
