<svg width="50" height="70" viewBox="0 0 50 70" fill="none" xmlns="http://www.w3.org/2000/svg">
<path d="M25 50V70" stroke="#FAFAFA" stroke-width="2"/>
<circle cx="25" cy="25" r="24" stroke="#FAFAFA" stroke-width="2"/>
<path d="M24.31 32.252C23.458 32.252 22.696 32.102 22.024 31.802C21.352 31.502 20.818 31.082 20.422 30.542C20.038 30.002 19.846 29.384 19.846 28.688C19.846 28.112 19.948 27.608 20.152 27.176C20.368 26.732 20.65 26.348 20.998 26.024C21.346 25.7 21.724 25.43 22.132 25.214V25.124C21.628 24.764 21.208 24.326 20.872 23.81C20.536 23.282 20.368 22.67 20.368 21.974C20.368 21.254 20.542 20.63 20.89 20.102C21.238 19.574 21.712 19.166 22.312 18.878C22.924 18.59 23.614 18.446 24.382 18.446C25.174 18.446 25.858 18.596 26.434 18.896C27.01 19.184 27.454 19.592 27.766 20.12C28.09 20.648 28.252 21.272 28.252 21.992C28.252 22.424 28.168 22.832 28 23.216C27.844 23.6 27.634 23.948 27.37 24.26C27.118 24.56 26.842 24.818 26.542 25.034V25.124C26.962 25.34 27.34 25.61 27.676 25.934C28.012 26.258 28.282 26.648 28.486 27.104C28.69 27.548 28.792 28.076 28.792 28.688C28.792 29.36 28.6 29.966 28.216 30.506C27.844 31.046 27.322 31.472 26.65 31.784C25.978 32.096 25.198 32.252 24.31 32.252ZM25.138 24.386C25.462 24.038 25.702 23.678 25.858 23.306C26.014 22.934 26.092 22.55 26.092 22.154C26.092 21.794 26.02 21.476 25.876 21.2C25.744 20.912 25.546 20.69 25.282 20.534C25.018 20.378 24.7 20.3 24.328 20.3C23.872 20.3 23.488 20.444 23.176 20.732C22.864 21.02 22.708 21.434 22.708 21.974C22.708 22.382 22.81 22.736 23.014 23.036C23.23 23.324 23.524 23.576 23.896 23.792C24.268 23.996 24.682 24.194 25.138 24.386ZM24.364 30.38C24.748 30.38 25.084 30.314 25.372 30.182C25.672 30.038 25.906 29.834 26.074 29.57C26.242 29.294 26.326 28.97 26.326 28.598C26.326 28.25 26.248 27.95 26.092 27.698C25.948 27.434 25.744 27.206 25.48 27.014C25.216 26.81 24.904 26.624 24.544 26.456C24.184 26.288 23.788 26.108 23.356 25.916C22.996 26.216 22.702 26.582 22.474 27.014C22.246 27.434 22.132 27.896 22.132 28.4C22.132 28.796 22.228 29.144 22.42 29.444C22.624 29.732 22.894 29.96 23.23 30.128C23.566 30.296 23.944 30.38 24.364 30.38Z" fill="white"/>
</svg>
