<svg width="365" height="472" viewBox="0 0 365 472" fill="none" xmlns="http://www.w3.org/2000/svg">
<g opacity="0.65">
<path d="M99.9025 82.8651C96.2055 82.8651 94.9205 84.1501 94.9205 87.8471C94.9205 84.1501 93.6355 82.8651 89.9385 82.8651C93.6355 82.8651 94.9205 81.5801 94.9205 77.8831C94.9205 81.5801 96.2055 82.8651 99.9025 82.8651Z" fill="#F9F9F9"/>
<path d="M151.602 343.982C147.905 343.982 146.62 345.267 146.62 348.964C146.62 345.267 145.335 343.982 141.638 343.982C145.335 343.982 146.62 342.697 146.62 339C146.62 342.697 147.905 343.982 151.602 343.982Z" fill="#F9F9F9"/>
<path d="M313.164 430.608C309.467 430.608 308.182 431.893 308.182 435.59C308.182 431.893 306.897 430.608 303.2 430.608C306.897 430.608 308.182 429.323 308.182 425.626C308.182 429.323 309.467 430.608 313.164 430.608Z" fill="#F9F9F9"/>
<path d="M364.171 466.247C360.474 466.247 359.189 467.532 359.189 471.229C359.189 467.532 357.904 466.247 354.207 466.247C357.904 466.247 359.189 464.962 359.189 461.265C359.189 464.962 360.474 466.247 364.171 466.247Z" fill="#F9F9F9"/>
<path d="M116.938 299.634C113.241 299.634 111.956 300.919 111.956 304.616C111.956 300.919 110.671 299.634 106.974 299.634C110.671 299.634 111.956 298.349 111.956 294.652C111.956 298.349 113.241 299.634 116.938 299.634Z" fill="#F9F9F9"/>
<path d="M32.0065 405.242C28.3095 405.242 27.0245 406.527 27.0245 410.224C27.0245 406.527 25.7395 405.242 22.0425 405.242C25.7395 405.242 27.0245 403.957 27.0245 400.26C27.0245 403.957 28.3095 405.242 32.0065 405.242Z" fill="#F9F9F9"/>
<path d="M316.581 315.216C312.884 315.216 311.599 316.501 311.599 320.198C311.599 316.501 310.314 315.216 306.617 315.216C310.314 315.216 311.599 313.931 311.599 310.234C311.599 313.931 312.884 315.216 316.581 315.216Z" fill="#F9F9F9"/>
<path d="M223.438 299.4C217.204 299.4 215.038 301.566 215.038 307.8C215.038 301.566 212.872 299.4 206.638 299.4C212.872 299.4 215.038 297.234 215.038 291C215.038 297.234 217.204 299.4 223.438 299.4Z" fill="#F9F9F9"/>
<path d="M215.73 355.4C209.496 355.4 207.33 357.566 207.33 363.8C207.33 357.566 205.164 355.4 198.93 355.4C205.164 355.4 207.33 353.234 207.33 347C207.33 353.234 209.496 355.4 215.73 355.4Z" fill="#F9F9F9"/>
<path d="M320.438 341.4C314.204 341.4 312.038 343.566 312.038 349.8C312.038 343.566 309.872 341.4 303.638 341.4C309.872 341.4 312.038 339.234 312.038 333C312.038 339.234 314.204 341.4 320.438 341.4Z" fill="#F9F9F9"/>
<path d="M44.3929 22.2977C38.9769 25.3849 38.1678 28.3393 41.2549 33.7552C38.1678 28.3393 35.2134 27.5301 29.7975 30.6173C35.2134 27.5301 36.0225 24.5757 32.9354 19.1598C36.0225 24.5757 38.9769 25.3849 44.3929 22.2977Z" fill="#F9F9F9"/>
<path d="M245.438 8.4C239.204 8.4 237.038 10.566 237.038 16.8C237.038 10.566 234.872 8.4 228.638 8.4C234.872 8.4 237.038 6.234 237.038 0C237.038 6.234 239.204 8.4 245.438 8.4Z" fill="#F9F9F9"/>
<path d="M231.901 454.128C225.667 454.128 223.501 456.294 223.501 462.528C223.501 456.294 221.335 454.128 215.101 454.128C221.335 454.128 223.501 451.962 223.501 445.728C223.501 451.962 225.667 454.128 231.901 454.128Z" fill="#F9F9F9"/>
<path d="M74.4377 320.4C68.2037 320.4 66.0377 322.566 66.0377 328.8C66.0377 322.566 63.8717 320.4 57.6377 320.4C63.8717 320.4 66.0377 318.234 66.0377 312C66.0377 318.234 68.2037 320.4 74.4377 320.4Z" fill="#F9F9F9"/>
<path d="M17.4377 347.4C11.2037 347.4 9.03769 349.566 9.03769 355.8C9.03769 349.566 6.8717 347.4 0.637695 347.4C6.8717 347.4 9.03769 345.234 9.03769 339C9.03769 345.234 11.2037 347.4 17.4377 347.4Z" fill="#F9F9F9"/>
<path d="M340.975 38.763C334.741 38.763 332.575 40.929 332.575 47.163C332.575 40.929 330.409 38.763 324.175 38.763C330.409 38.763 332.575 36.597 332.575 30.363C332.575 36.597 334.741 38.763 340.975 38.763Z" fill="#F9F9F9"/>
<path d="M47.2902 256.792C41.0562 256.792 38.8902 258.958 38.8902 265.192C38.8902 258.958 36.7242 256.792 30.4902 256.792C36.7242 256.792 38.8902 254.626 38.8902 248.392C38.8902 254.626 41.0562 256.792 47.2902 256.792Z" fill="#F9F9F9"/>
<path d="M287.917 210.068C281.683 210.068 279.517 212.234 279.517 218.468C279.517 212.234 277.351 210.068 271.117 210.068C277.351 210.068 279.517 207.902 279.517 201.668C279.517 207.902 281.683 210.068 287.917 210.068Z" fill="#F9F9F9"/>
<path d="M213.7 119.373C207.466 119.373 205.3 121.539 205.3 127.773C205.3 121.539 203.134 119.373 196.9 119.373C203.134 119.373 205.3 117.207 205.3 110.973C205.3 117.207 207.466 119.373 213.7 119.373Z" fill="#F9F9F9"/>
<path d="M79.7545 173.533C76.0575 173.533 74.7725 174.818 74.7725 178.515C74.7725 174.818 73.4875 173.533 69.7905 173.533C73.4875 173.533 74.7725 172.248 74.7725 168.551C74.7725 172.248 76.0575 173.533 79.7545 173.533Z" fill="#F9F9F9"/>
<path d="M360.396 252.689C356.699 252.689 355.414 253.974 355.414 257.671C355.414 253.974 354.129 252.689 350.432 252.689C354.129 252.689 355.414 251.404 355.414 247.707C355.414 251.404 356.699 252.689 360.396 252.689Z" fill="#F9F9F9"/>
<path d="M86.6017 373.982C82.9047 373.982 81.6197 375.267 81.6197 378.964C81.6197 375.267 80.3347 373.982 76.6377 373.982C80.3347 373.982 81.6197 372.697 81.6197 369C81.6197 372.697 82.9047 373.982 86.6017 373.982Z" fill="#F9F9F9"/>
<path d="M30.8224 114.272C27.1254 114.272 25.8404 115.557 25.8404 119.254C25.8404 115.557 24.5554 114.272 20.8584 114.272C24.5554 114.272 25.8404 112.987 25.8404 109.29C25.8404 112.987 27.1254 114.272 30.8224 114.272Z" fill="#F9F9F9"/>
<path d="M173.557 399.485C169.86 399.485 168.575 400.77 168.575 404.467C168.575 400.77 167.29 399.485 163.593 399.485C167.29 399.485 168.575 398.2 168.575 394.503C168.575 398.2 169.86 399.485 173.557 399.485Z" fill="#F9F9F9"/>
<path d="M363.019 376.458C359.322 376.458 358.037 377.743 358.037 381.44C358.037 377.743 356.752 376.458 353.055 376.458C356.752 376.458 358.037 375.173 358.037 371.476C358.037 375.173 359.322 376.458 363.019 376.458Z" fill="#F9F9F9"/>
<path d="M363.019 376.458C359.322 376.458 358.037 377.743 358.037 381.44C358.037 377.743 356.752 376.458 353.055 376.458C356.752 376.458 358.037 375.173 358.037 371.476C358.037 375.173 359.322 376.458 363.019 376.458Z" fill="#F9F9F9"/>
<path d="M114.638 22.5C112.04 22.5 111.138 23.4027 111.138 26C111.138 23.4027 110.235 22.5 107.638 22.5C110.235 22.5 111.138 21.5973 111.138 19C111.138 21.5973 112.04 22.5 114.638 22.5Z" fill="#F9F9F9"/>
<path d="M114.638 22.5C112.04 22.5 111.138 23.4027 111.138 26C111.138 23.4027 110.235 22.5 107.638 22.5C110.235 22.5 111.138 21.5973 111.138 19C111.138 21.5973 112.04 22.5 114.638 22.5Z" fill="#F9F9F9"/>
<path d="M284.638 25.5C282.04 25.5 281.138 26.4027 281.138 29C281.138 26.4027 280.235 25.5 277.638 25.5C280.235 25.5 281.138 24.5973 281.138 22C281.138 24.5973 282.04 25.5 284.638 25.5Z" fill="#F9F9F9"/>
<path d="M163.638 29.5C161.04 29.5 160.138 30.4027 160.138 33C160.138 30.4027 159.235 29.5 156.638 29.5C159.235 29.5 160.138 28.5973 160.138 26C160.138 28.5973 161.04 29.5 163.638 29.5Z" fill="#F9F9F9"/>
<path d="M217.602 112.982C213.905 112.982 212.62 114.267 212.62 117.964C212.62 114.267 211.335 112.982 207.638 112.982C211.335 112.982 212.62 111.697 212.62 108C212.62 111.697 213.905 112.982 217.602 112.982Z" fill="#F9F9F9"/>
<path d="M354.639 152.2C350.942 152.2 349.657 153.485 349.657 157.182C349.657 153.485 348.372 152.2 344.675 152.2C348.372 152.2 349.657 150.915 349.657 147.218C349.657 150.915 350.942 152.2 354.639 152.2Z" fill="#F9F9F9"/>
<path d="M310.755 100.796C307.058 100.796 305.773 102.081 305.773 105.778C305.773 102.081 304.488 100.796 300.791 100.796C304.488 100.796 305.773 99.5112 305.773 95.8142C305.773 99.5112 307.058 100.796 310.755 100.796Z" fill="#F9F9F9"/>
<path d="M10.6017 203.985C6.9047 203.985 5.61969 205.27 5.61969 208.967C5.61969 205.27 4.3347 203.985 0.637695 203.985C4.3347 203.985 5.61969 202.7 5.61969 199.003C5.61969 202.7 6.9047 203.985 10.6017 203.985Z" fill="#F9F9F9"/>
<path d="M177.801 53.2581C174.104 53.2581 172.819 54.5431 172.819 58.2401C172.819 54.5431 171.534 53.2581 167.837 53.2581C171.534 53.2581 172.819 51.9731 172.819 48.2761C172.819 51.9731 174.104 53.2581 177.801 53.2581Z" fill="#F9F9F9"/>
<path d="M44.4555 358.659C44.7526 358.659 44.9935 358.418 44.9935 358.121C44.9935 357.824 44.7526 357.583 44.4555 357.583C44.1584 357.583 43.9175 357.824 43.9175 358.121C43.9175 358.418 44.1584 358.659 44.4555 358.659Z" fill="#F9F9F9"/>
<path d="M268.729 350.457C269.027 350.457 269.267 350.216 269.267 349.919C269.267 349.622 269.027 349.381 268.729 349.381C268.432 349.381 268.191 349.622 268.191 349.919C268.191 350.216 268.432 350.457 268.729 350.457Z" fill="#F9F9F9"/>
<path d="M109.061 342.792C109.359 342.792 109.599 342.551 109.599 342.254C109.599 341.957 109.359 341.716 109.061 341.716C108.764 341.716 108.523 341.957 108.523 342.254C108.523 342.551 108.764 342.792 109.061 342.792Z" fill="#F9F9F9"/>
<path d="M238.611 292.237C238.908 292.237 239.149 291.996 239.149 291.699C239.149 291.402 238.908 291.161 238.611 291.161C238.314 291.161 238.073 291.402 238.073 291.699C238.073 291.996 238.314 292.237 238.611 292.237Z" fill="#F9F9F9"/>
<path d="M69.4638 61.7762C69.7609 61.7762 70.0018 61.5353 70.0018 61.2382C70.0018 60.9411 69.7609 60.7002 69.4638 60.7002C69.1666 60.7002 68.9258 60.9411 68.9258 61.2382C68.9258 61.5353 69.1666 61.7762 69.4638 61.7762Z" fill="#F9F9F9"/>
<path d="M314.707 224.573C315.004 224.573 315.245 224.332 315.245 224.035C315.245 223.738 315.004 223.497 314.707 223.497C314.41 223.497 314.169 223.738 314.169 224.035C314.169 224.332 314.41 224.573 314.707 224.573Z" fill="#F9F9F9"/>
<path d="M53.4066 237.404C53.7038 237.404 53.9446 237.163 53.9446 236.866C53.9446 236.569 53.7038 236.328 53.4066 236.328C53.1095 236.328 52.8687 236.569 52.8687 236.866C52.8687 237.163 53.1095 237.404 53.4066 237.404Z" fill="#F9F9F9"/>
<path d="M205.3 115.166C205.597 115.166 205.838 114.925 205.838 114.628C205.838 114.331 205.597 114.09 205.3 114.09C205.003 114.09 204.762 114.331 204.762 114.628C204.762 114.925 205.003 115.166 205.3 115.166Z" fill="#F9F9F9"/>
<path d="M129.084 144.669C129.381 144.669 129.622 144.428 129.622 144.131C129.622 143.834 129.381 143.593 129.084 143.593C128.787 143.593 128.546 143.834 128.546 144.131C128.546 144.428 128.787 144.669 129.084 144.669Z" fill="#F9F9F9"/>
<path d="M125.621 424.594C125.918 424.594 126.159 424.353 126.159 424.056C126.159 423.759 125.918 423.518 125.621 423.518C125.323 423.518 125.083 423.759 125.083 424.056C125.083 424.353 125.323 424.594 125.621 424.594Z" fill="#F9F9F9"/>
<path d="M314.809 388.38C315.106 388.38 315.346 388.139 315.346 387.842C315.346 387.545 315.106 387.304 314.809 387.304C314.511 387.304 314.271 387.545 314.271 387.842C314.271 388.139 314.511 388.38 314.809 388.38Z" fill="#F9F9F9"/>
<path d="M206.535 168.853C206.832 168.853 207.073 168.612 207.073 168.315C207.073 168.018 206.832 167.777 206.535 167.777C206.237 167.777 205.997 168.018 205.997 168.315C205.997 168.612 206.237 168.853 206.535 168.853Z" fill="#F9F9F9"/>
<path d="M264.148 425.133C264.445 425.133 264.686 424.892 264.686 424.595C264.686 424.298 264.445 424.057 264.148 424.057C263.851 424.057 263.61 424.298 263.61 424.595C263.61 424.892 263.851 425.133 264.148 425.133Z" fill="#F9F9F9"/>
<path d="M189.951 210.067C190.248 210.067 190.489 209.826 190.489 209.529C190.489 209.232 190.248 208.991 189.951 208.991C189.653 208.991 189.413 209.232 189.413 209.529C189.413 209.826 189.653 210.067 189.951 210.067Z" fill="#F9F9F9"/>
<path d="M247.096 9.44709C247.393 9.44709 247.634 9.20622 247.634 8.90909C247.634 8.61196 247.393 8.37109 247.096 8.37109C246.798 8.37109 246.558 8.61196 246.558 8.90909C246.558 9.20622 246.798 9.44709 247.096 9.44709Z" fill="#F9F9F9"/>
<path d="M274.141 166.796C274.438 166.796 274.679 166.555 274.679 166.258C274.679 165.961 274.438 165.72 274.141 165.72C273.843 165.72 273.603 165.961 273.603 166.258C273.603 166.555 273.843 166.796 274.141 166.796Z" fill="#F9F9F9"/>
<path d="M113.102 227.031C113.4 227.031 113.64 226.79 113.64 226.493C113.64 226.196 113.4 225.955 113.102 225.955C112.805 225.955 112.564 226.196 112.564 226.493C112.564 226.79 112.805 227.031 113.102 227.031Z" fill="#F9F9F9"/>
</g>
</svg>
